<svg width="106" height="45" viewBox="0 0 106 45" fill="none" xmlns="http://www.w3.org/2000/svg">
<path d="M4.79038 16.8441L7.93645 13.5516L11.3283 10.143C11.5434 9.92314 11.7523 9.75821 11.9428 9.63604C12.1332 9.51386 12.4159 9.45278 12.803 9.45278H16.072C16.4529 9.45278 16.6803 9.55052 16.7479 9.73988C16.8155 9.92925 16.7417 10.1492 16.5267 10.3874L9.98262 17.003L17.3378 28.4565C17.473 28.7009 17.4975 28.9147 17.3992 29.1101C17.3071 29.2995 17.1043 29.3972 16.8093 29.3972H13.6633C13.227 29.3972 12.9136 29.3301 12.7231 29.1896C12.5327 29.0552 12.3667 28.8658 12.2316 28.6215L7.00246 20.2955L4.66749 22.6473V28.6153C4.66749 28.8291 4.61218 29.0185 4.50158 29.1651C4.39712 29.3178 4.1882 29.3911 3.88711 29.3911H0.992977C0.476826 29.3911 0.21875 29.1346 0.21875 28.6215V1.52997C0.21875 0.986306 0.476826 0.717529 0.992977 0.717529H3.89326C4.19435 0.717529 4.39712 0.790832 4.50772 0.943546C4.61833 1.09015 4.67363 1.29173 4.67363 1.53608V16.8075L4.79038 16.8441ZM24.8097 24.3516C24.8097 24.9746 24.951 25.3595 25.2398 25.5122C25.5286 25.6649 26.0202 25.7382 26.733 25.7382C27.0341 25.7626 27.2307 25.8054 27.329 25.8604C27.4273 25.9154 27.501 26.0498 27.5502 26.2697L27.7161 28.3405C27.7468 28.6642 27.5625 28.9208 27.1877 29.1101C26.8067 29.2995 26.3581 29.4278 25.842 29.495C25.3258 29.5683 24.8896 29.5988 24.5332 29.5988C22.9847 29.5988 21.8971 29.2506 21.2826 28.5604C20.6682 27.8701 20.3671 26.8316 20.3671 25.4572V1.52997C20.3671 1.01685 20.6252 0.760289 21.1413 0.760289H24.0416C24.5578 0.760289 24.8158 1.01685 24.8158 1.52997V24.3516H24.8097ZM34.8992 20.6559C34.9299 21.6821 35.0467 22.5373 35.2433 23.2154C35.4522 23.8934 35.7533 24.4249 36.165 24.8158C36.5706 25.2068 37.0806 25.4878 37.6766 25.6466C38.2788 25.8115 38.9977 25.8909 39.8457 25.8909C40.583 25.8909 41.4494 25.836 42.4572 25.726C43.4649 25.616 44.362 25.5244 45.1485 25.445C45.5295 25.39 45.7999 25.3961 45.9473 25.4633C46.0948 25.5305 46.1993 25.7565 46.2546 26.1353L46.5003 27.473C46.5556 27.7724 46.5495 28.0167 46.4819 28.2061C46.4143 28.3954 46.187 28.5726 45.806 28.7375C45.3943 28.8963 44.9212 29.0429 44.3743 29.1651C43.8336 29.2873 43.2621 29.3911 42.6599 29.4705C42.0578 29.55 41.4617 29.6172 40.8595 29.6721C40.2635 29.721 39.7166 29.7515 39.2251 29.7515C37.2649 29.7515 35.698 29.4644 34.5244 28.8963C33.3569 28.3282 32.4536 27.5708 31.833 26.624C31.2063 25.671 30.7884 24.5837 30.5857 23.3559C30.3829 22.1219 30.2784 20.8453 30.2784 19.5197C30.2784 18.5484 30.3645 17.4489 30.5242 16.2333C30.6901 15.0116 31.065 13.8754 31.6487 12.8186C32.2324 11.7618 33.105 10.8761 34.2602 10.1553C35.4154 9.44056 36.9884 9.08016 38.9793 9.08016C40.8042 9.08016 42.2851 9.34893 43.4157 9.8926C44.5463 10.4363 45.425 11.1326 46.0456 11.9878C46.6724 12.843 47.1025 13.8143 47.336 14.9138C47.5695 16.0134 47.6986 17.1007 47.7231 18.1819C47.7477 18.9149 47.6248 19.5075 47.3606 19.9717C47.0841 20.4299 46.5434 20.662 45.7261 20.662H34.8992V20.6559ZM38.9854 12.7392C38.2235 12.7392 37.5967 12.8491 37.1052 13.0629C36.6136 13.2828 36.2142 13.6005 35.9008 14.0159C35.5874 14.4374 35.3662 14.9505 35.2249 15.5613C35.0897 16.1722 34.9914 16.8564 34.9422 17.6138H43.0286C43.0286 16.9969 42.9733 16.386 42.8627 15.8057C42.7521 15.2254 42.5555 14.7061 42.2728 14.2419C41.9902 13.7838 41.5785 13.4172 41.05 13.1485C40.5216 12.8736 39.8272 12.7392 38.9854 12.7392ZM59.5762 24.3943C59.5762 24.3149 59.6561 24.0217 59.822 23.5208C59.9817 23.0199 60.1599 22.4701 60.3504 21.8776C60.5716 21.1751 60.8297 20.4054 61.1308 19.5625L64.3997 10.143C64.4796 9.92314 64.5841 9.76432 64.707 9.65436C64.8237 9.54441 65.0388 9.49554 65.3399 9.49554H68.4429C68.9898 9.49554 69.1557 9.7521 68.9406 10.2652L61.991 28.542C61.8866 28.8414 61.7514 29.0552 61.5855 29.1896C61.4196 29.3301 61.1738 29.3972 60.8481 29.3972H58.1015C57.7205 29.3972 57.4624 29.3362 57.3272 29.214C57.1921 29.0918 57.0692 28.878 56.9586 28.5848L50.0151 10.3019C49.9352 10.082 49.9229 9.89259 49.9782 9.73377C50.0335 9.56884 50.1933 9.48943 50.4698 9.48943H53.7019C54.003 9.48943 54.2119 9.53219 54.3348 9.62993C54.4577 9.72766 54.5744 9.92314 54.6789 10.2163L57.9478 19.7213C58.1936 20.5093 58.4271 21.2362 58.6422 21.9143C58.8327 22.4823 59.0047 23.0199 59.1522 23.5208C59.3058 24.0217 59.4103 24.3149 59.4594 24.3943H59.5762V24.3943ZM76.0377 20.6559C76.0685 21.6821 76.1791 22.5373 76.388 23.2154C76.5908 23.8934 76.898 24.4249 77.3097 24.8158C77.7152 25.2068 78.2252 25.4878 78.8213 25.6466C79.4234 25.8115 80.1424 25.8909 80.9842 25.8909C81.7215 25.8909 82.5941 25.836 83.5957 25.726C84.6034 25.616 85.5005 25.5244 86.2932 25.445C86.6741 25.39 86.9384 25.3961 87.092 25.4633C87.2395 25.5305 87.3378 25.7565 87.3992 26.1353L87.645 27.473C87.7003 27.7724 87.6942 28.0167 87.6266 28.2061C87.5528 28.3954 87.3316 28.5726 86.9506 28.7375C86.5451 28.8963 86.0658 29.0429 85.519 29.1651C84.9721 29.2873 84.4006 29.3911 83.8046 29.4705C83.2024 29.55 82.6064 29.6172 82.0103 29.6721C81.4082 29.721 80.8674 29.7515 80.3759 29.7515C78.4157 29.7515 76.8488 29.4644 75.6813 28.8963C74.5077 28.3282 73.6106 27.5708 72.9838 26.624C72.3571 25.671 71.9392 24.5837 71.7426 23.3559C71.5398 22.1219 71.4354 20.8453 71.4354 19.5197C71.4354 18.5484 71.5153 17.4489 71.6812 16.2333C71.8471 15.0116 72.2219 13.8754 72.8056 12.8186C73.3894 11.7618 74.2619 10.8761 75.4233 10.1553C76.5785 9.44056 78.1454 9.08016 80.1362 9.08016C81.9612 9.08016 83.4359 9.34893 84.5665 9.8926C85.6971 10.4363 86.5758 11.1326 87.2026 11.9878C87.8232 12.843 88.2595 13.8143 88.493 14.9138C88.7265 16.0134 88.8494 17.1007 88.8801 18.1819C88.9047 18.9149 88.7818 19.5075 88.5052 19.9717C88.2349 20.4299 87.6942 20.662 86.8708 20.662H76.0377V20.6559ZM80.1239 12.7392C79.362 12.7392 78.7352 12.8491 78.2437 13.0629C77.7521 13.2828 77.3527 13.6005 77.0393 14.0159C76.7259 14.4374 76.4986 14.9505 76.3634 15.5613C76.2282 16.1722 76.1299 16.8564 76.0746 17.6138H84.161C84.161 16.9969 84.1057 16.386 84.0012 15.8057C83.8906 15.2254 83.694 14.7061 83.4052 14.2419C83.1164 13.7838 82.7108 13.4172 82.1824 13.1485C81.654 12.8736 80.9658 12.7392 80.1239 12.7392ZM97.8144 28.6215C97.8144 29.1346 97.5563 29.3972 97.0402 29.3972H94.0969C93.5807 29.3972 93.3227 29.1407 93.3227 28.6215V10.3019C93.3227 9.75821 93.5807 9.48943 94.0969 9.48943H96.9972C97.5441 9.48943 97.8144 9.75821 97.8144 10.3019V12.0856L97.8943 12.165C98.1954 11.8901 98.5825 11.603 99.0802 11.2915C99.5718 10.9799 100.094 10.6989 100.653 10.4424C101.212 10.1858 101.778 9.94757 102.343 9.73377C102.914 9.51386 103.449 9.36726 103.941 9.28785C104.217 9.23287 104.432 9.24509 104.598 9.3245C104.764 9.40391 104.868 9.62382 104.924 9.97812L105.206 12.6964C105.237 12.9957 105.225 13.2157 105.17 13.35C105.114 13.4844 104.868 13.5944 104.432 13.6738C103.861 13.7838 103.265 13.9059 102.632 14.0586C102.011 14.2052 101.397 14.3702 100.795 14.5473C100.192 14.7245 99.6332 14.8955 99.1171 15.0543C98.6009 15.2193 98.1585 15.3781 97.8083 15.543V28.6215H97.8144Z" fill="white"/>
<path d="M2.78131 44.7174C2.57239 44.7174 2.35732 44.7113 2.1484 44.693C1.93334 44.6869 1.72442 44.6624 1.52779 44.6319C1.33116 44.6013 1.14682 44.5708 0.968629 44.5341C0.790434 44.4975 0.636817 44.4547 0.513924 44.4059C0.421754 44.3631 0.384886 44.3081 0.421754 44.2226L0.458622 44.0027C0.470912 43.9416 0.50778 43.9172 0.581516 43.9355C0.772 43.9538 0.974774 43.9783 1.19598 43.9966C1.41719 44.0149 1.6384 44.0332 1.85346 44.0516C2.06852 44.0638 2.25901 44.076 2.43106 44.0882C2.59697 44.1004 2.73215 44.1065 2.80588 44.1065C3.43264 44.1065 3.92421 43.9844 4.26831 43.7461C4.60627 43.5079 4.77832 43.1536 4.77832 42.6955C4.77832 42.4023 4.75374 42.164 4.68615 41.9685C4.6247 41.7731 4.52639 41.6204 4.39121 41.4921C4.25602 41.3699 4.06554 41.2722 3.8259 41.1928C3.58626 41.1195 3.29131 41.0523 2.94107 40.9912C2.55395 40.9362 2.216 40.8629 1.90876 40.7835C1.60153 40.7102 1.33731 40.6002 1.10996 40.4536C0.876459 40.3131 0.704409 40.1299 0.581516 39.9039C0.458622 39.6778 0.40332 39.3785 0.40332 39.012C0.40332 38.3339 0.618383 37.8208 1.04851 37.4604C1.47864 37.1 2.10539 36.9229 2.92878 36.9229C3.05167 36.9229 3.19914 36.929 3.37734 36.9351C3.55553 36.9473 3.74602 36.9595 3.94265 36.9901C4.14542 37.0145 4.34205 37.045 4.53868 37.0817C4.73531 37.1183 4.90121 37.1672 5.04869 37.2161C5.0917 37.2344 5.11628 37.2527 5.12242 37.2894C5.13471 37.3199 5.13471 37.3566 5.12242 37.3932L5.07326 37.5765C5.07326 37.607 5.06097 37.6376 5.04254 37.662C5.01796 37.6864 4.98109 37.6987 4.9135 37.6864C4.60627 37.6498 4.28675 37.6131 3.96108 37.5704C3.62927 37.5337 3.27902 37.5093 2.89805 37.5093C2.55395 37.5093 2.2713 37.5459 2.03166 37.6131C1.79816 37.6803 1.60767 37.7781 1.47249 37.9064C1.33116 38.0346 1.22671 38.1873 1.16526 38.3706C1.10381 38.5539 1.07309 38.7615 1.07309 38.9815C1.07309 39.2502 1.1161 39.464 1.18984 39.6229C1.26972 39.7817 1.38647 39.9039 1.54623 40.0016C1.69984 40.0932 1.90262 40.1665 2.13612 40.2154C2.36961 40.2643 2.64612 40.3131 2.9595 40.3742C3.32204 40.4353 3.65999 40.5025 3.96722 40.5819C4.26831 40.6613 4.52639 40.7774 4.7476 40.9301C4.9688 41.0889 5.14086 41.2966 5.26375 41.5409C5.38664 41.7975 5.44809 42.1274 5.44809 42.5428C5.44809 42.952 5.3805 43.288 5.24532 43.569C5.11013 43.8439 4.91965 44.0638 4.67386 44.2348C4.42807 44.4059 4.14542 44.5219 3.8259 44.5952C3.50638 44.6869 3.15613 44.7174 2.78131 44.7174ZM18.9848 37.5887C18.911 37.5887 18.8619 37.5704 18.8373 37.5459C18.8127 37.5215 18.8004 37.4726 18.8004 37.4116V37.1367C18.8004 37.0817 18.8127 37.0389 18.8373 37.0206C18.8619 36.9962 18.911 36.984 18.9848 36.984H23.8759C23.9497 36.984 23.9988 36.9962 24.0173 37.0206C24.0418 37.0389 24.0541 37.0817 24.0541 37.1367V37.4116C24.0541 37.4726 24.0418 37.5154 24.0173 37.5459C23.9988 37.5765 23.9497 37.5887 23.8759 37.5887H21.7745L21.7622 44.4425C21.7622 44.5158 21.7499 44.5586 21.7314 44.5769C21.713 44.6013 21.67 44.6136 21.6086 44.6136H21.2645C21.1969 44.6136 21.1538 44.6013 21.1231 44.5769C21.0985 44.5525 21.0801 44.5097 21.0801 44.4425V37.5887H18.9848ZM42.5926 37.1733C42.5926 37.1 42.6049 37.045 42.6356 37.0267C42.6663 37.0023 42.7155 36.9901 42.7831 36.9901H43.121C43.2316 36.9901 43.2808 37.0512 43.2808 37.1733L43.2685 41.8891C43.2685 42.1335 43.2562 42.3717 43.2255 42.5916C43.2009 42.8176 43.1456 43.0253 43.0596 43.2391C42.8384 43.7584 42.5004 44.1371 42.0396 44.3631C41.5787 44.5891 41.0441 44.6991 40.4358 44.6991C39.8029 44.6991 39.2622 44.583 38.8075 44.357C38.3528 44.1249 38.0332 43.7584 37.8305 43.2513C37.7506 43.0437 37.7014 42.8299 37.6707 42.6038C37.64 42.3778 37.6277 42.1396 37.6277 41.8952V37.1794C37.6277 37.1061 37.64 37.0512 37.6707 37.0328C37.7014 37.0084 37.7444 36.9962 37.8059 36.9962H38.1438C38.2483 36.9962 38.3036 37.0573 38.3036 37.1794V41.9258C38.3036 42.6222 38.4757 43.1597 38.8198 43.5446C39.1577 43.9294 39.6984 44.1249 40.4235 44.1249C41.124 44.1249 41.6647 43.9416 42.0334 43.5873C42.4021 43.2208 42.5864 42.671 42.5864 41.9258V37.1733H42.5926ZM63.1342 40.7835C63.1342 41.3271 63.0912 41.8342 63.0051 42.3045C62.913 42.7688 62.7532 43.1719 62.5074 43.514C62.2739 43.8561 61.9483 44.1249 61.5366 44.3203C61.1249 44.5097 60.6026 44.6136 59.9574 44.6136H57.7637C57.6593 44.6136 57.5917 44.6013 57.561 44.5708C57.5364 44.5464 57.518 44.5036 57.518 44.4364V37.1672C57.518 37.1122 57.5303 37.0695 57.5548 37.0328C57.5794 36.9962 57.6347 36.984 57.7084 36.984H59.9574C60.5903 36.984 61.1126 37.0817 61.5243 37.2772C61.9298 37.4726 62.2555 37.7414 62.489 38.0774C62.7286 38.4195 62.9007 38.8104 62.9867 39.2808C63.0912 39.745 63.1342 40.2459 63.1342 40.7835ZM62.4153 40.8751C62.4153 40.3253 62.3722 39.8611 62.2862 39.4824C62.2002 39.1036 62.0896 38.7982 61.9483 38.5539C61.8131 38.3095 61.6533 38.1263 61.4813 37.9919C61.3092 37.8575 61.1249 37.7597 60.9467 37.7048C60.7623 37.6437 60.5903 37.6131 60.4182 37.6009C60.2462 37.5887 60.0987 37.5887 59.9635 37.5887H58.2307V44.0149H59.8714C59.9881 44.0149 60.1233 44.0149 60.2953 44.0088C60.4674 44.0027 60.6456 43.9783 60.8361 43.9233C61.0204 43.8622 61.2048 43.7767 61.4014 43.6545C61.5919 43.5323 61.7639 43.3552 61.9053 43.117C62.0589 42.8787 62.1756 42.5794 62.2739 42.219C62.3661 41.8647 62.4153 41.4127 62.4153 40.8751ZM77.5619 37.1733C77.5619 37.1 77.5741 37.045 77.6049 37.0267C77.6356 37.0023 77.6786 36.9901 77.7462 36.9901H78.0842C78.1948 36.9901 78.2439 37.0512 78.2439 37.1733V44.4425C78.2439 44.5158 78.2316 44.5586 78.2132 44.5769C78.1948 44.6013 78.1517 44.6136 78.0842 44.6136H77.7462C77.6847 44.6136 77.6356 44.6013 77.6049 44.5769C77.5741 44.5525 77.5619 44.5097 77.5619 44.4425V37.1733ZM98.7425 40.6919C98.7425 41.1622 98.7179 41.6326 98.6626 42.109C98.6073 42.5855 98.4721 43.0192 98.2632 43.4041C98.0482 43.7889 97.7409 44.1065 97.3292 44.357C96.9237 44.6013 96.3707 44.7235 95.6763 44.7235C94.9881 44.7235 94.4474 44.6013 94.048 44.357C93.6486 44.1127 93.3536 43.795 93.1509 43.4041C92.9481 43.0192 92.8191 42.5855 92.7637 42.109C92.7085 41.6326 92.6777 41.1622 92.6777 40.6919C92.6777 40.4475 92.69 40.1848 92.7146 39.9039C92.7392 39.6229 92.7883 39.3419 92.8559 39.0609C92.9296 38.7799 93.0341 38.505 93.1631 38.2484C93.2983 37.9858 93.4765 37.7536 93.6977 37.5521C93.9251 37.3566 94.1893 37.1978 94.515 37.0756C94.8345 36.9534 95.2216 36.8984 95.6763 36.8984C96.3461 36.8984 96.8868 37.0084 97.2862 37.2283C97.6918 37.4482 98.0051 37.7353 98.2202 38.0896C98.4291 38.4439 98.5766 38.8532 98.6442 39.3052C98.7118 39.7572 98.7425 40.2215 98.7425 40.6919ZM98.0666 40.8079C98.0666 40.2948 98.0297 39.8305 97.956 39.4213C97.8823 38.9998 97.7594 38.6516 97.5812 38.3523C97.403 38.0591 97.1572 37.8392 96.8499 37.6742C96.5366 37.5154 96.1433 37.436 95.6763 37.436C95.2278 37.436 94.8652 37.5215 94.5641 37.6864C94.2692 37.8575 94.0357 38.0896 93.8636 38.3889C93.6854 38.6882 93.5626 39.0425 93.4888 39.4518C93.4151 39.8611 93.3782 40.3131 93.3782 40.8079C93.3782 41.2844 93.4151 41.7242 93.4827 42.1274C93.5503 42.5366 93.6732 42.8848 93.8452 43.1841C94.0234 43.4835 94.2569 43.7217 94.5518 43.8927C94.8529 44.0638 95.2216 44.1493 95.6763 44.1493C96.131 44.1493 96.5058 44.0699 96.8131 43.9111C97.1142 43.7522 97.36 43.5262 97.5443 43.233C97.7286 42.9398 97.8638 42.5855 97.9437 42.1762C98.0236 41.7609 98.0666 41.3088 98.0666 40.8079Z" fill="white"/>
</svg>
