<svg width="106" height="45" viewBox="0 0 106 45" fill="none" xmlns="http://www.w3.org/2000/svg">
<path d="M5.56577 16.7135L8.71184 13.421L12.1037 10.0124C12.3188 9.79252 12.5277 9.62759 12.7182 9.50542C12.9086 9.38325 13.1913 9.32216 13.5784 9.32216H16.8474C17.2283 9.32216 17.4557 9.4199 17.5233 9.60927C17.5909 9.79863 17.5171 10.0185 17.3021 10.2568L10.758 16.8724L18.1132 28.3259C18.2484 28.5703 18.2729 28.7841 18.1746 28.9795C18.0824 29.1689 17.8797 29.2666 17.5847 29.2666H14.4387C14.0024 29.2666 13.689 29.1994 13.4985 29.0589C13.308 28.9246 13.1421 28.7352 13.007 28.4908L7.77785 20.1649L5.44288 22.5167V28.4847C5.44288 28.6985 5.38757 28.8879 5.27697 29.0345C5.17251 29.1872 4.96359 29.2605 4.6625 29.2605H1.76837C1.25222 29.2605 0.994141 29.004 0.994141 28.4908V1.39935C0.994141 0.855691 1.25222 0.586914 1.76837 0.586914H4.66865C4.96974 0.586914 5.17251 0.660217 5.28311 0.812931C5.39372 0.959537 5.44902 1.16112 5.44902 1.40546V16.6769L5.56577 16.7135ZM25.5851 24.221C25.5851 24.844 25.7264 25.2289 26.0152 25.3816C26.304 25.5343 26.7956 25.6076 27.5084 25.6076C27.8094 25.632 28.0061 25.6748 28.1044 25.7298C28.2027 25.7847 28.2764 25.9191 28.3256 26.139L28.4915 28.2099C28.5222 28.5336 28.3379 28.7902 27.9631 28.9795C27.5821 29.1689 27.1335 29.2972 26.6174 29.3644C26.1012 29.4377 25.665 29.4682 25.3086 29.4682C23.7601 29.4682 22.6725 29.12 22.058 28.4298C21.4436 27.7395 21.1425 26.701 21.1425 25.3266V1.39935C21.1425 0.886234 21.4006 0.629674 21.9167 0.629674H24.817C25.3331 0.629674 25.5912 0.886234 25.5912 1.39935V24.221H25.5851ZM35.6746 20.5253C35.7053 21.5515 35.8221 22.4067 36.0187 23.0848C36.2276 23.7628 36.5287 24.2943 36.9404 24.6852C37.346 25.0762 37.856 25.3571 38.452 25.516C39.0542 25.6809 39.7731 25.7603 40.6211 25.7603C41.3584 25.7603 42.2248 25.7053 43.2325 25.5954C44.2403 25.4854 45.1374 25.3938 45.9239 25.3144C46.3049 25.2594 46.5752 25.2655 46.7227 25.3327C46.8702 25.3999 46.9746 25.6259 47.0299 26.0047L47.2757 27.3424C47.331 27.6418 47.3249 27.8861 47.2573 28.0755C47.1897 28.2648 46.9624 28.442 46.5814 28.6069C46.1697 28.7657 45.6966 28.9123 45.1497 29.0345C44.609 29.1567 44.0375 29.2605 43.4353 29.3399C42.8331 29.4193 42.2371 29.4865 41.6349 29.5415C41.0389 29.5904 40.492 29.6209 40.0005 29.6209C38.0403 29.6209 36.4734 29.3338 35.2998 28.7657C34.1323 28.1976 33.229 27.4402 32.6084 26.4933C31.9817 25.5404 31.5638 24.4531 31.3611 23.2253C31.1583 21.9913 31.0538 20.7146 31.0538 19.3891C31.0538 18.4178 31.1399 17.3183 31.2996 16.1027C31.4655 14.881 31.8403 13.7448 32.4241 12.688C33.0078 11.6312 33.8804 10.7455 35.0356 10.0246C36.1908 9.30995 37.7638 8.94954 39.7547 8.94954C41.5796 8.94954 43.0605 9.21832 44.1911 9.76198C45.3217 10.3056 46.2004 11.002 46.821 11.8572C47.4478 12.7124 47.8779 13.6837 48.1114 14.7832C48.3449 15.8828 48.4739 16.9701 48.4985 18.0513C48.5231 18.7843 48.4002 19.3769 48.136 19.8411C47.8595 20.2993 47.3187 20.5314 46.5015 20.5314H35.6746V20.5253ZM39.7608 12.6086C38.9989 12.6086 38.3721 12.7185 37.8805 12.9323C37.389 13.1522 36.9896 13.4699 36.6762 13.8853C36.3628 14.3068 36.1416 14.8199 36.0003 15.4307C35.8651 16.0416 35.7668 16.7257 35.7176 17.4832H43.804C43.804 16.8662 43.7487 16.2554 43.6381 15.6751C43.5275 15.0948 43.3309 14.5755 43.0482 14.1113C42.7656 13.6531 42.3539 13.2866 41.8254 13.0178C41.297 12.743 40.6026 12.6086 39.7608 12.6086ZM60.3516 24.2637C60.3516 24.1843 60.4315 23.8911 60.5974 23.3902C60.7571 22.8893 60.9353 22.3395 61.1258 21.747C61.347 21.0445 61.6051 20.2748 61.9062 19.4318L65.1751 10.0124C65.255 9.79252 65.3595 9.6337 65.4824 9.52375C65.5991 9.41379 65.8142 9.36492 66.1153 9.36492H69.2183C69.7652 9.36492 69.9311 9.62148 69.716 10.1346L62.7664 28.4114C62.662 28.7108 62.5268 28.9246 62.3609 29.0589C62.195 29.1994 61.9492 29.2666 61.6235 29.2666H58.8769C58.4959 29.2666 58.2378 29.2055 58.1026 29.0834C57.9674 28.9612 57.8446 28.7474 57.7339 28.4542L50.7905 10.1713C50.7106 9.95135 50.6983 9.76198 50.7536 9.60316C50.8089 9.43823 50.9687 9.35881 51.2452 9.35881H54.4773C54.7784 9.35881 54.9873 9.40158 55.1102 9.49931C55.2331 9.59705 55.3498 9.79252 55.4543 10.0857L58.7232 19.5907C58.969 20.3787 59.2025 21.1056 59.4176 21.7836C59.6081 22.3517 59.7801 22.8893 59.9276 23.3902C60.0812 23.8911 60.1857 24.1843 60.2348 24.2637H60.3516ZM76.8131 20.5253C76.8438 21.5515 76.9545 22.4067 77.1634 23.0848C77.3661 23.7628 77.6734 24.2943 78.0851 24.6852C78.4906 25.0762 79.0006 25.3571 79.5967 25.516C80.1988 25.6809 80.9178 25.7603 81.7596 25.7603C82.4969 25.7603 83.3695 25.7053 84.3711 25.5954C85.3788 25.4854 86.2759 25.3938 87.0686 25.3144C87.4495 25.2594 87.7138 25.2655 87.8674 25.3327C88.0148 25.3999 88.1132 25.6259 88.1746 26.0047L88.4204 27.3424C88.4757 27.6418 88.4696 27.8861 88.402 28.0755C88.3282 28.2648 88.107 28.442 87.726 28.6069C87.3205 28.7657 86.8412 28.9123 86.2943 29.0345C85.7475 29.1567 85.176 29.2605 84.58 29.3399C83.9778 29.4193 83.3818 29.4865 82.7857 29.5415C82.1836 29.5904 81.6428 29.6209 81.1513 29.6209C79.1911 29.6209 77.6242 29.3338 76.4567 28.7657C75.2831 28.1976 74.386 27.4402 73.7592 26.4933C73.1325 25.5404 72.7146 24.4531 72.518 23.2253C72.3152 21.9913 72.2108 20.7146 72.2108 19.3891C72.2108 18.4178 72.2907 17.3183 72.4566 16.1027C72.6225 14.881 72.9973 13.7448 73.581 12.688C74.1648 11.6312 75.0373 10.7455 76.1987 10.0246C77.3539 9.30995 78.9207 8.94954 80.9116 8.94954C82.7366 8.94954 84.2113 9.21832 85.3419 9.76198C86.4725 10.3056 87.3512 11.002 87.978 11.8572C88.5986 12.7124 89.0349 13.6837 89.2684 14.7832C89.5019 15.8828 89.6247 16.9701 89.6555 18.0513C89.68 18.7843 89.5572 19.3769 89.2806 19.8411C89.0103 20.2993 88.4696 20.5314 87.6462 20.5314H76.8131V20.5253ZM80.8993 12.6086C80.1374 12.6086 79.5106 12.7185 79.0191 12.9323C78.5275 13.1522 78.1281 13.4699 77.8147 13.8853C77.5013 14.3068 77.274 14.8199 77.1388 15.4307C77.0036 16.0416 76.9053 16.7257 76.85 17.4832H84.9364C84.9364 16.8662 84.8811 16.2554 84.7766 15.6751C84.666 15.0948 84.4694 14.5755 84.1806 14.1113C83.8918 13.6531 83.4862 13.2866 82.9578 13.0178C82.4293 12.743 81.7411 12.6086 80.8993 12.6086ZM98.5898 28.4908C98.5898 29.004 98.3317 29.2666 97.8156 29.2666H94.8723C94.3561 29.2666 94.0981 29.0101 94.0981 28.4908V10.1713C94.0981 9.62759 94.3561 9.35881 94.8723 9.35881H97.7726C98.3194 9.35881 98.5898 9.62759 98.5898 10.1713V11.955L98.6697 12.0344C98.9708 11.7595 99.3579 11.4724 99.8556 11.1608C100.347 10.8493 100.869 10.5683 101.429 10.3118C101.988 10.0552 102.553 9.81696 103.118 9.60316C103.69 9.38325 104.224 9.23664 104.716 9.15723C104.993 9.10225 105.208 9.11447 105.374 9.19388C105.539 9.27329 105.644 9.4932 105.699 9.8475L105.982 12.5658C106.013 12.8651 106 13.085 105.945 13.2194C105.89 13.3538 105.644 13.4638 105.208 13.5432C104.636 13.6531 104.04 13.7753 103.407 13.928C102.787 14.0746 102.172 14.2396 101.57 14.4167C100.968 14.5939 100.409 14.7649 99.8925 14.9237C99.3763 15.0886 98.9339 15.2475 98.5837 15.4124V28.4908H98.5898Z" fill="#161A25"/>
<path d="M3.5567 44.5869C3.34778 44.5869 3.13271 44.5808 2.9238 44.5625C2.70873 44.5564 2.49981 44.5319 2.30318 44.5014C2.10656 44.4708 1.92222 44.4403 1.74402 44.4037C1.56582 44.367 1.41221 44.3242 1.28931 44.2754C1.19714 44.2326 1.16028 44.1776 1.19714 44.0921L1.23401 43.8722C1.2463 43.8111 1.28317 43.7867 1.35691 43.805C1.54739 43.8233 1.75016 43.8478 1.97137 43.8661C2.19258 43.8844 2.41379 43.9028 2.62885 43.9211C2.84391 43.9333 3.0344 43.9455 3.20645 43.9577C3.37236 43.9699 3.50754 43.9761 3.58127 43.9761C4.20803 43.9761 4.6996 43.8539 5.0437 43.6156C5.38166 43.3774 5.55371 43.0231 5.55371 42.565C5.55371 42.2718 5.52913 42.0335 5.46154 41.8381C5.40009 41.6426 5.30178 41.4899 5.1666 41.3616C5.03141 41.2394 4.84093 41.1417 4.60129 41.0623C4.36165 40.989 4.0667 40.9218 3.71646 40.8607C3.32934 40.8057 2.99139 40.7324 2.68415 40.653C2.37692 40.5797 2.1127 40.4697 1.88535 40.3231C1.65185 40.1826 1.4798 39.9994 1.35691 39.7734C1.23401 39.5473 1.17871 39.248 1.17871 38.8815C1.17871 38.2035 1.39377 37.6903 1.8239 37.3299C2.25403 36.9695 2.88078 36.7924 3.70417 36.7924C3.82706 36.7924 3.97453 36.7985 4.15273 36.8046C4.33092 36.8168 4.52141 36.829 4.71804 36.8596C4.92081 36.884 5.11744 36.9145 5.31407 36.9512C5.5107 36.9879 5.6766 37.0367 5.82408 37.0856C5.86709 37.1039 5.89167 37.1222 5.89781 37.1589C5.9101 37.1894 5.9101 37.2261 5.89781 37.2627L5.84865 37.446C5.84865 37.4765 5.83637 37.5071 5.81793 37.5315C5.79335 37.5559 5.75648 37.5682 5.68889 37.5559C5.38166 37.5193 5.06214 37.4826 4.73647 37.4399C4.40466 37.4032 4.05441 37.3788 3.67344 37.3788C3.32934 37.3788 3.04669 37.4155 2.80705 37.4826C2.57355 37.5498 2.38306 37.6476 2.24788 37.7759C2.10656 37.9041 2.0021 38.0569 1.94065 38.2401C1.8792 38.4234 1.84848 38.6311 1.84848 38.851C1.84848 39.1197 1.89149 39.3335 1.96523 39.4924C2.04511 39.6512 2.16186 39.7734 2.32162 39.8711C2.47523 39.9627 2.67801 40.036 2.91151 40.0849C3.145 40.1338 3.42151 40.1826 3.73489 40.2437C4.09743 40.3048 4.43538 40.372 4.74262 40.4514C5.0437 40.5308 5.30178 40.6469 5.52299 40.7996C5.7442 40.9584 5.91625 41.1661 6.03914 41.4105C6.16203 41.667 6.22348 41.9969 6.22348 42.4123C6.22348 42.8215 6.15589 43.1575 6.02071 43.4385C5.88552 43.7134 5.69504 43.9333 5.44925 44.1043C5.20346 44.2754 4.92081 44.3914 4.60129 44.4647C4.28177 44.5564 3.93152 44.5869 3.5567 44.5869ZM19.7602 37.4582C19.6864 37.4582 19.6373 37.4399 19.6127 37.4155C19.5881 37.391 19.5758 37.3421 19.5758 37.2811V37.0062C19.5758 36.9512 19.5881 36.9084 19.6127 36.8901C19.6373 36.8657 19.6864 36.8535 19.7602 36.8535H24.6513C24.7251 36.8535 24.7742 36.8657 24.7927 36.8901C24.8172 36.9084 24.8295 36.9512 24.8295 37.0062V37.2811C24.8295 37.3421 24.8172 37.3849 24.7927 37.4155C24.7742 37.446 24.7251 37.4582 24.6513 37.4582H22.5499L22.5376 44.312C22.5376 44.3853 22.5253 44.4281 22.5068 44.4464C22.4884 44.4708 22.4454 44.4831 22.3839 44.4831H22.0398C21.9723 44.4831 21.9292 44.4708 21.8985 44.4464C21.8739 44.422 21.8555 44.3792 21.8555 44.312V37.4582H19.7602ZM43.368 37.0428C43.368 36.9695 43.3803 36.9145 43.411 36.8962C43.4417 36.8718 43.4909 36.8596 43.5584 36.8596H43.8964C44.007 36.8596 44.0562 36.9207 44.0562 37.0428L44.0439 41.7586C44.0439 42.003 44.0316 42.2412 44.0009 42.4611C43.9763 42.6871 43.921 42.8948 43.835 43.1086C43.6138 43.6279 43.2758 44.0066 42.8149 44.2326C42.3541 44.4586 41.8195 44.5686 41.2112 44.5686C40.5783 44.5686 40.0376 44.4525 39.5829 44.2265C39.1282 43.9944 38.8086 43.6279 38.6059 43.1209C38.526 42.9132 38.4768 42.6994 38.4461 42.4733C38.4154 42.2473 38.4031 42.0091 38.4031 41.7648V37.0489C38.4031 36.9756 38.4154 36.9207 38.4461 36.9023C38.4768 36.8779 38.5198 36.8657 38.5813 36.8657H38.9192C39.0237 36.8657 39.079 36.9268 39.079 37.0489V41.7953C39.079 42.4917 39.251 43.0292 39.5951 43.4141C39.9331 43.7989 40.4738 43.9944 41.1989 43.9944C41.8994 43.9944 42.4401 43.8111 42.8088 43.4568C43.1775 43.0903 43.3618 42.5405 43.3618 41.7953V37.0428H43.368ZM63.9096 40.653C63.9096 41.1967 63.8666 41.7037 63.7805 42.174C63.6884 42.6383 63.5286 43.0414 63.2828 43.3835C63.0493 43.7256 62.7237 43.9944 62.312 44.1898C61.9003 44.3792 61.378 44.4831 60.7328 44.4831H58.5391C58.4347 44.4831 58.3671 44.4708 58.3364 44.4403C58.3118 44.4159 58.2934 44.3731 58.2934 44.3059V37.0367C58.2934 36.9817 58.3056 36.939 58.3302 36.9023C58.3548 36.8657 58.4101 36.8535 58.4838 36.8535H60.7328C61.3657 36.8535 61.888 36.9512 62.2997 37.1467C62.7052 37.3421 63.0309 37.6109 63.2644 37.9469C63.504 38.289 63.6761 38.6799 63.7621 39.1503C63.8666 39.6145 63.9096 40.1154 63.9096 40.653ZM63.1907 40.7446C63.1907 40.1948 63.1476 39.7306 63.0616 39.3519C62.9756 38.9731 62.865 38.6677 62.7237 38.4234C62.5885 38.179 62.4287 37.9958 62.2567 37.8614C62.0846 37.727 61.9003 37.6293 61.7221 37.5743C61.5377 37.5132 61.3657 37.4826 61.1936 37.4704C61.0216 37.4582 60.8741 37.4582 60.7389 37.4582H59.0061V43.8844H60.6468C60.7635 43.8844 60.8987 43.8844 61.0707 43.8783C61.2428 43.8722 61.421 43.8478 61.6115 43.7928C61.7958 43.7317 61.9801 43.6462 62.1768 43.524C62.3673 43.4018 62.5393 43.2247 62.6806 42.9865C62.8343 42.7482 62.951 42.4489 63.0493 42.0885C63.1415 41.7342 63.1907 41.2822 63.1907 40.7446ZM78.3372 37.0428C78.3372 36.9695 78.3495 36.9145 78.3803 36.8962C78.411 36.8718 78.454 36.8596 78.5216 36.8596H78.8595C78.9701 36.8596 79.0193 36.9207 79.0193 37.0428V44.312C79.0193 44.3853 79.007 44.4281 78.9886 44.4464C78.9701 44.4708 78.9271 44.4831 78.8595 44.4831H78.5216C78.4601 44.4831 78.411 44.4708 78.3803 44.4464C78.3495 44.422 78.3372 44.3792 78.3372 44.312V37.0428ZM99.5179 40.5614C99.5179 41.0317 99.4933 41.5021 99.438 41.9786C99.3827 42.455 99.2475 42.8887 99.0386 43.2736C98.8235 43.6584 98.5163 43.9761 98.1046 44.2265C97.6991 44.4708 97.1461 44.593 96.4517 44.593C95.7635 44.593 95.2228 44.4708 94.8234 44.2265C94.424 43.9822 94.129 43.6645 93.9263 43.2736C93.7235 42.8887 93.5944 42.455 93.5391 41.9786C93.4838 41.5021 93.4531 41.0317 93.4531 40.5614C93.4531 40.317 93.4654 40.0544 93.49 39.7734C93.5146 39.4924 93.5637 39.2114 93.6313 38.9304C93.705 38.6494 93.8095 38.3745 93.9385 38.1179C94.0737 37.8553 94.2519 37.6231 94.4731 37.4216C94.7005 37.2261 94.9647 37.0673 95.2904 36.9451C95.6099 36.8229 95.997 36.7679 96.4517 36.7679C97.1215 36.7679 97.6622 36.8779 98.0616 37.0978C98.4672 37.3177 98.7805 37.6048 98.9956 37.9591C99.2045 38.3134 99.352 38.7227 99.4196 39.1747C99.4872 39.6268 99.5179 40.091 99.5179 40.5614ZM98.842 40.6774C98.842 40.1643 98.8051 39.7001 98.7314 39.2908C98.6576 38.8693 98.5348 38.5211 98.3566 38.2218C98.1784 37.9286 97.9326 37.7087 97.6253 37.5437C97.312 37.3849 96.9187 37.3055 96.4517 37.3055C96.0032 37.3055 95.6406 37.391 95.3395 37.5559C95.0446 37.727 94.8111 37.9591 94.639 38.2584C94.4608 38.5578 94.3379 38.9121 94.2642 39.3213C94.1905 39.7306 94.1536 40.1826 94.1536 40.6774C94.1536 41.1539 94.1905 41.5937 94.2581 41.9969C94.3257 42.4062 94.4485 42.7543 94.6206 43.0537C94.7988 43.353 95.0323 43.5912 95.3272 43.7623C95.6283 43.9333 95.997 44.0188 96.4517 44.0188C96.9064 44.0188 97.2812 43.9394 97.5885 43.7806C97.8896 43.6218 98.1353 43.3957 98.3197 43.1025C98.504 42.8093 98.6392 42.455 98.7191 42.0457C98.799 41.6304 98.842 41.1783 98.842 40.6774Z" fill="#161A25"/>
</svg>
