<svg width="63" height="64" viewBox="0 0 63 64" fill="none" xmlns="http://www.w3.org/2000/svg">
<path fill-rule="evenodd" clip-rule="evenodd" d="M36.9304 36.9062C36.9304 37.7467 49.8528 41.5779 49.8528 48.4734C49.8528 51.8183 46.9433 53.6304 43.5246 53.6304L41.4276 53.574C40.5777 53.5373 40.5393 53.5177 40.1239 53.9857C38.5555 55.7978 36.6667 57.9848 33.8897 58.0595C31.9251 58.1159 30.3193 56.9005 29.6392 55.5368C29.0156 54.2662 28.5618 51.5941 28.5618 49.6876C28.2031 49.9498 26.5588 52.4909 26.0869 53.0888C25.6897 53.5936 23.2725 55.799 23.2725 56.1726C23.2725 60.2281 27.9949 63.5729 32.0948 63.5729H32.7184C35.4389 63.5729 38.1209 62.0781 39.652 60.8628C40.7475 59.9843 41.7117 58.6954 42.0512 58.4332C43.5246 57.2558 48.8705 59.368 53.1402 54.9952C54.5197 53.5936 56.3327 51.1836 56.3327 48.4171V48.025C56.3327 43.8201 52.347 39.8026 49.8528 38.0089C48.2843 36.8878 41.0496 32.4023 38.9708 32.4023C38.1017 32.4035 36.9304 35.8231 36.9304 36.9062Z" fill="#010BFF"/>
<path fill-rule="evenodd" clip-rule="evenodd" d="M15.6397 56.8637H16.5462C21.6285 56.8637 25.2554 51.5757 27.3139 48.3056C28.5802 46.2693 30.7145 42.6623 31.3188 40.1959C31.5836 39.0932 31.4886 39.0932 30.7145 38.6448C30.091 38.2895 28.0891 37.3179 27.2007 37.3179C26.5206 37.3179 21.968 50.3983 16.0358 50.3983H15.0728C12.6737 50.3983 10.7657 47.633 10.6333 45.1286C10.596 44.2318 10.6333 43.7086 10.6333 42.8117C10.6333 41.8965 10.9162 41.1859 10.3877 40.6811C9.63178 39.9705 8.57368 39.0185 7.95014 38.2515C6.36356 36.252 5.3247 33.8972 7.11837 31.1502C7.74192 30.1786 8.8566 29.5991 10.1603 29.3381C10.8404 29.1886 14.146 28.9081 14.4492 28.7586C14.1086 28.2538 11.6914 26.5912 11.0294 26.1048C10.1037 25.4138 8.8566 23.4326 7.60951 23.4326C6.09875 23.4326 4.00066 25.0401 3.28319 25.9174C-0.608568 30.6639 0.297888 36.9982 4.13307 40.8111C4.71813 41.409 5.28509 41.8574 5.81471 42.5484C6.39977 43.3338 6.24926 44.2858 6.24926 45.5943C6.24926 48.0044 6.7404 49.5934 7.53369 51.2193C8.83962 53.8363 11.843 56.8637 15.6397 56.8637Z" fill="#F000FE"/>
<path fill-rule="evenodd" clip-rule="evenodd" d="M32.0947 24.5915C32.0947 25.5447 35.2113 26.7969 36.5342 26.7969C37.2902 26.7969 41.3517 13.7165 47.7942 13.7165H48.3046C50.062 13.7165 51.4969 15.2492 52.1771 16.3887C53.2352 18.2203 52.9138 20.4993 52.9138 23.1531C52.9138 23.5084 57.3533 26.3484 57.3533 29.9738C57.3533 31.9354 56.2012 33.5613 54.8976 34.2339C53.6505 34.8698 51.119 35.3734 49.3242 35.4114C49.3808 35.9725 52.9138 38.1399 54.1416 39.3725C54.4064 39.6531 55.3129 40.7925 55.6524 40.7925C56.4083 40.7925 57.9191 40.0072 58.4487 39.7082C60.8671 38.2882 62.775 35.2423 62.775 32.1217V31.2432C62.775 28.7585 61.6411 26.422 60.6407 24.9089C60.0364 23.9936 59.4321 23.3762 58.6762 22.6104C57.411 21.3214 57.4676 21.8998 57.4676 19.676C57.4676 16.0506 56.466 13.0047 54.8421 11.0236C53.3121 9.17353 50.6856 7.19238 47.3992 7.19238C43.1487 7.19238 39.3701 11.0604 37.6138 13.7326C36.5716 15.3239 32.0947 22.6679 32.0947 24.5915Z" fill="#00FFEA"/>
<path fill-rule="evenodd" clip-rule="evenodd" d="M24.349 31.7114C25.4637 31.7114 26.6157 28.7586 26.6157 27.3765C26.6157 27.0396 23.2525 25.3954 22.7432 25.1344C21.289 24.4054 20.1359 23.8259 18.8514 22.8922C17.0759 21.5837 13.6368 18.6505 13.6368 15.7541V15.3988C13.6368 13.9225 14.8454 12.4277 15.7145 11.7734C18.6998 9.51288 22.4592 11.1008 23.1959 10.4097C24.8956 8.84023 26.8047 6.0933 29.2412 6.0933H29.9213C31.8666 6.0933 33.3027 7.32706 34.002 8.67235C34.569 9.75664 34.9843 12.7462 34.9843 14.4284C35.3431 14.1662 37.1752 11.5136 37.6098 10.9525C38.2899 10.0372 40.2171 8.74709 40.2171 7.47654C40.2171 6.35546 38.9893 4.43065 38.4415 3.73961C37.6675 2.78641 36.5143 1.90794 35.3057 1.38477C32.3023 0.0578737 29.0341 0.469511 26.3894 1.8148C24.6897 2.69327 23.0273 3.98222 21.7417 5.4218C20.9292 6.33706 21.0808 5.94497 19.6821 5.98292C15.9601 6.05766 13.372 6.87978 11.1992 8.52403C9.23464 10.0188 7.53376 12.392 7.32667 15.6805C6.96793 21.2491 12.6726 25.8082 16.7918 28.2194C17.9076 28.8529 23.1212 31.7114 24.349 31.7114Z" fill="#90FE00"/>
</svg>
