<svg width="21" height="21" viewBox="0 0 21 21" fill="none" xmlns="http://www.w3.org/2000/svg">
<path d="M10.3398 4.98743C7.34513 4.98743 4.99219 7.44732 4.99219 10.335C4.99219 13.3297 7.45208 15.6826 10.3398 15.6826C13.3344 15.6826 15.6874 13.2227 15.6874 10.335C15.6874 7.44732 13.3344 4.98743 10.3398 4.98743ZM10.3398 14.1853C8.20074 14.1853 6.48951 12.4741 6.48951 10.335C6.48951 8.19598 8.20074 6.48475 10.3398 6.48475C12.4788 6.48475 14.19 8.19598 14.19 10.335C14.19 12.4741 12.4788 14.1853 10.3398 14.1853Z" fill="#161A25"/>
<path d="M15.3639 0.602051H5.31041C2.63661 0.602051 0.390625 2.84804 0.390625 5.52184V15.5753C0.390625 18.3561 2.63661 20.6021 5.31041 20.6021H15.3639C18.1446 20.6021 20.2837 18.3561 20.2837 15.5753V5.52184C20.2837 2.84804 18.1446 0.602051 15.3639 0.602051ZM18.7863 15.5753C18.7863 17.5004 17.289 18.9978 15.3639 18.9978H5.31041C3.38528 18.9978 1.88795 17.5004 1.88795 15.5753V5.52184C1.88795 3.5967 3.38528 2.09938 5.31041 2.09938H15.3639C17.289 2.09938 18.7863 3.5967 18.7863 5.52184V10.5486V15.5753Z" fill="#161A25"/>
</svg>
