<svg width="41" height="41" viewBox="0 0 41 41" fill="none" xmlns="http://www.w3.org/2000/svg">
<path fill-rule="evenodd" clip-rule="evenodd" d="M23.991 23.3927C23.991 23.9264 32.3278 26.3589 32.3278 30.737C32.3278 32.8607 30.4508 34.0113 28.2452 34.0113L26.8924 33.9755C26.3441 33.9521 26.3193 33.9397 26.0513 34.2369C25.0394 35.3874 23.8209 36.776 22.0293 36.8234C20.7619 36.8592 19.7259 36.0875 19.2871 35.2217C18.8849 34.415 18.5921 32.7184 18.5921 31.5079C18.3607 31.6744 17.2998 33.2878 16.9954 33.6674C16.7391 33.9879 15.1797 35.3881 15.1797 35.6254C15.1797 38.2003 18.2263 40.324 20.8714 40.324H21.2737C23.0288 40.324 24.7591 39.375 25.7469 38.6033C26.4536 38.0455 27.0756 37.2271 27.2947 37.0607C28.2452 36.3131 31.6941 37.6542 34.4487 34.8778C35.3387 33.9879 36.5083 32.4577 36.5083 30.7012V30.4523C36.5083 27.7825 33.9369 25.2317 32.3278 24.0928C31.316 23.381 26.6485 20.5331 25.3074 20.5331C24.7467 20.5338 23.991 22.705 23.991 23.3927Z" fill="#010BFF"/>
<path fill-rule="evenodd" clip-rule="evenodd" d="M10.256 36.0648H10.8408C14.1195 36.0648 16.4595 32.7073 17.7875 30.6311C18.6044 29.3382 19.9814 27.048 20.3712 25.482C20.5421 24.7819 20.4808 24.7819 19.9814 24.4972C19.5791 24.2716 18.2876 23.6547 17.7145 23.6547C17.2757 23.6547 14.3386 31.9598 10.5115 31.9598H9.89019C8.34241 31.9598 7.1115 30.204 7.02608 28.614C7.00198 28.0445 7.02608 27.7123 7.02608 27.1429C7.02608 26.5618 7.2086 26.1106 6.86765 25.7901C6.37995 25.3389 5.69733 24.7345 5.29505 24.2475C4.27148 22.978 3.60126 21.4828 4.75844 19.7387C5.16072 19.1218 5.87985 18.7539 6.7209 18.5882C7.15968 18.4933 9.29225 18.3151 9.48791 18.2202C9.26816 17.8997 7.7087 16.8441 7.2816 16.5353C6.6844 16.0965 5.87985 14.8386 5.0753 14.8386C4.10064 14.8386 2.74707 15.8592 2.2842 16.4163C-0.226555 19.4299 0.358241 23.4518 2.83249 25.8726C3.20994 26.2522 3.57571 26.537 3.91739 26.9757C4.29484 27.4743 4.19774 28.0788 4.19774 28.9096C4.19774 30.4398 4.5146 31.4487 5.02638 32.481C5.8689 34.1426 7.80653 36.0648 10.256 36.0648Z" fill="#161A25"/>
<path fill-rule="evenodd" clip-rule="evenodd" d="M20.8721 15.5742C20.8721 16.1794 22.8827 16.9745 23.7362 16.9745C24.2239 16.9745 26.8441 8.66941 31.0005 8.66941H31.3298C32.4636 8.66941 33.3893 9.64256 33.8281 10.366C34.5107 11.529 34.3034 12.976 34.3034 14.6609C34.3034 14.8865 37.1675 16.6897 37.1675 18.9916C37.1675 20.2371 36.4243 21.2694 35.5832 21.6964C34.7787 22.1001 33.1455 22.4199 31.9876 22.444C32.0241 22.8003 34.3034 24.1764 35.0955 24.959C35.2664 25.1372 35.8511 25.8606 36.0702 25.8606C36.5579 25.8606 37.5325 25.362 37.8742 25.1722C39.4344 24.2706 40.6653 22.3367 40.6653 20.3553V19.7976C40.6653 18.2199 39.9338 16.7365 39.2884 15.7757C38.8985 15.1946 38.5086 14.8026 38.0209 14.3163C37.2047 13.498 37.2412 13.8652 37.2412 12.4533C37.2412 10.1514 36.5951 8.21751 35.5474 6.95963C34.5604 5.78498 32.8658 4.5271 30.7457 4.5271C28.0035 4.5271 25.5658 6.98299 24.4327 8.67963C23.7603 9.69002 20.8721 14.3528 20.8721 15.5742Z" fill="#161A25"/>
<path fill-rule="evenodd" clip-rule="evenodd" d="M15.8746 20.0946C16.5937 20.0946 17.337 18.2198 17.337 17.3423C17.337 17.1284 15.1672 16.0844 14.8386 15.9187C13.9005 15.4558 13.1565 15.0879 12.3279 14.4951C11.1824 13.6643 8.96366 11.8019 8.96366 9.96292V9.73734C8.96366 8.79995 9.74339 7.85089 10.3041 7.43549C12.23 6.00021 14.6554 7.00841 15.1307 6.56965C16.2272 5.57313 17.4589 3.82904 19.0308 3.82904H19.4695C20.7245 3.82904 21.651 4.61238 22.1022 5.46654C22.468 6.15498 22.7359 8.05311 22.7359 9.12117C22.9674 8.95472 24.1494 7.27049 24.4297 6.91423C24.8685 6.33311 26.1118 5.51399 26.1118 4.70729C26.1118 3.99549 25.3197 2.77338 24.9663 2.33462C24.4669 1.72941 23.723 1.17165 22.9433 0.839478C21.0056 -0.003001 18.8971 0.258357 17.1909 1.11252C16.0944 1.67028 15.0219 2.48866 14.1925 3.40269C13.6683 3.98381 13.7661 3.73486 12.8638 3.75895C10.4625 3.8064 8.79282 4.32839 7.39106 5.37236C6.12364 6.32143 5.02633 7.82825 4.89273 9.9162C4.66129 13.4518 8.34163 16.3465 10.9991 17.8774C11.719 18.2797 15.0825 20.0946 15.8746 20.0946Z" fill="#161A25"/>
</svg>
