<svg width="41" height="41" viewBox="0 0 41 41" fill="none" xmlns="http://www.w3.org/2000/svg">
<path fill-rule="evenodd" clip-rule="evenodd" d="M24.1082 23.3927C24.1082 23.9264 32.445 26.3589 32.445 30.737C32.445 32.8607 30.568 34.0113 28.3624 34.0113L27.0096 33.9755C26.4613 33.9521 26.4365 33.9397 26.1685 34.2369C25.1566 35.3874 23.9381 36.776 22.1465 36.8234C20.8791 36.8592 19.8431 36.0875 19.4043 35.2217C19.002 34.415 18.7093 32.7184 18.7093 31.5079C18.4778 31.6744 17.417 33.2878 17.1126 33.6674C16.8563 33.9879 15.2969 35.3881 15.2969 35.6254C15.2969 38.2003 18.3435 40.324 20.9886 40.324H21.3909C23.146 40.324 24.8763 39.375 25.8641 38.6033C26.5708 38.0455 27.1928 37.2271 27.4119 37.0607C28.3624 36.3131 31.8113 37.6542 34.5659 34.8778C35.4559 33.9879 36.6255 32.4577 36.6255 30.7012V30.4523C36.6255 27.7825 34.0541 25.2317 32.445 24.0928C31.4331 23.381 26.7657 20.5331 25.4246 20.5331C24.8639 20.5338 24.1082 22.705 24.1082 23.3927Z" fill="#161A25"/>
<path fill-rule="evenodd" clip-rule="evenodd" d="M10.3731 36.0648H10.9579C14.2367 36.0648 16.5766 32.7073 17.9047 30.6311C18.7216 29.3382 20.0986 27.048 20.4884 25.482C20.6593 24.7819 20.5979 24.7819 20.0986 24.4972C19.6963 24.2716 18.4048 23.6547 17.8317 23.6547C17.3929 23.6547 14.4558 31.9598 10.6287 31.9598H10.0074C8.4596 31.9598 7.22868 30.204 7.14326 28.614C7.11917 28.0445 7.14326 27.7123 7.14326 27.1429C7.14326 26.5618 7.32578 26.1106 6.98484 25.7901C6.49714 25.3389 5.81452 24.7345 5.41224 24.2475C4.38867 22.978 3.71845 21.4828 4.87563 19.7387C5.2779 19.1218 5.99704 18.7539 6.83809 18.5882C7.27687 18.4933 9.40944 18.3151 9.6051 18.2202C9.38534 17.8997 7.82589 16.8441 7.39879 16.5353C6.80159 16.0965 5.99704 14.8386 5.19249 14.8386C4.21783 14.8386 2.86426 15.8592 2.40138 16.4163C-0.109367 19.4299 0.475428 23.4518 2.94967 25.8726C3.32713 26.2522 3.6929 26.537 4.03458 26.9757C4.41203 27.4743 4.31493 28.0788 4.31493 28.9096C4.31493 30.4398 4.63178 31.4487 5.14357 32.481C5.98608 34.1426 7.92372 36.0648 10.3731 36.0648Z" fill="#161A25"/>
<path fill-rule="evenodd" clip-rule="evenodd" d="M20.9893 15.5742C20.9893 16.1794 22.9999 16.9745 23.8534 16.9745C24.3411 16.9745 26.9613 8.66941 31.1177 8.66941H31.4469C32.5808 8.66941 33.5065 9.64256 33.9453 10.366C34.6279 11.529 34.4206 12.976 34.4206 14.6609C34.4206 14.8865 37.2847 16.6897 37.2847 18.9916C37.2847 20.2371 36.5414 21.2694 35.7004 21.6964C34.8958 22.1001 33.2627 22.4199 32.1047 22.444C32.1412 22.8003 34.4206 24.1764 35.2127 24.959C35.3835 25.1372 35.9683 25.8606 36.1874 25.8606C36.6751 25.8606 37.6497 25.362 37.9914 25.1722C39.5516 24.2706 40.7825 22.3367 40.7825 20.3553V19.7976C40.7825 18.2199 40.0509 16.7365 39.4056 15.7757C39.0157 15.1946 38.6258 14.8026 38.1381 14.3163C37.3219 13.498 37.3584 13.8652 37.3584 12.4533C37.3584 10.1514 36.7123 8.21751 35.6646 6.95963C34.6776 5.78498 32.983 4.5271 30.8629 4.5271C28.1207 4.5271 25.6829 6.98299 24.5499 8.67963C23.8775 9.69002 20.9893 14.3528 20.9893 15.5742Z" fill="#161A25"/>
<path fill-rule="evenodd" clip-rule="evenodd" d="M15.9918 20.0946C16.7109 20.0946 17.4542 18.2198 17.4542 17.3423C17.4542 17.1284 15.2843 16.0844 14.9558 15.9187C14.0177 15.4558 13.2737 15.0879 12.4451 14.4951C11.2996 13.6643 9.08085 11.8019 9.08085 9.96292V9.73734C9.08085 8.79995 9.86057 7.85089 10.4213 7.43549C12.3472 6.00021 14.7726 7.00841 15.2478 6.56965C16.3444 5.57313 17.5761 3.82904 19.1479 3.82904H19.5867C20.8417 3.82904 21.7682 4.61238 22.2194 5.46654C22.5852 6.15498 22.8531 8.05311 22.8531 9.12117C23.0845 8.95472 24.2665 7.27049 24.5469 6.91423C24.9857 6.33311 26.229 5.51399 26.229 4.70729C26.229 3.99549 25.4369 2.77338 25.0835 2.33462C24.5841 1.72941 23.8402 1.17165 23.0604 0.839478C21.1228 -0.003001 19.0143 0.258357 17.3081 1.11252C16.2116 1.67028 15.1391 2.48866 14.3097 3.40269C13.7855 3.98381 13.8833 3.73486 12.9809 3.75895C10.5797 3.8064 8.91001 4.32839 7.50825 5.37236C6.24083 6.32143 5.14352 7.82825 5.00991 9.9162C4.77848 13.4518 8.45882 16.3465 11.1163 17.8774C11.8362 18.2797 15.1997 20.0946 15.9918 20.0946Z" fill="#90FE00"/>
</svg>
