<svg width="63" height="64" viewBox="0 0 63 64" fill="none" xmlns="http://www.w3.org/2000/svg">
<path fill-rule="evenodd" clip-rule="evenodd" d="M36.9304 37.3271C36.9304 38.1676 49.8528 41.9988 49.8528 48.8943C49.8528 52.2392 46.9433 54.0513 43.5246 54.0513L41.4276 53.9949C40.5777 53.9582 40.5393 53.9386 40.1239 54.4066C38.5555 56.2187 36.6667 58.4057 33.8897 58.4804C31.9251 58.5368 30.3193 57.3214 29.6392 55.9577C29.0156 54.6871 28.5618 52.015 28.5618 50.1085C28.2031 50.3707 26.5588 52.9118 26.0869 53.5097C25.6897 54.0145 23.2725 56.2199 23.2725 56.5935C23.2725 60.649 27.9949 63.9938 32.0948 63.9938H32.7184C35.4389 63.9938 38.1209 62.499 39.652 61.2837C40.7475 60.4052 41.7117 59.1163 42.0512 58.8541C43.5246 57.6767 48.8705 59.7889 53.1402 55.4161C54.5197 54.0145 56.3327 51.6045 56.3327 48.838V48.4459C56.3327 44.241 52.347 40.2235 49.8528 38.4298C48.2843 37.3087 41.0496 32.8232 38.9708 32.8232C38.1017 32.8244 36.9304 36.244 36.9304 37.3271Z" fill="#010BFF"/>
<path fill-rule="evenodd" clip-rule="evenodd" d="M15.6397 57.2846H16.5462C21.6285 57.2846 25.2554 51.9966 27.3139 48.7265C28.5802 46.6902 30.7145 43.0832 31.3188 40.6168C31.5836 39.5141 31.4886 39.5141 30.7145 39.0657C30.091 38.7104 28.0891 37.7388 27.2007 37.7388C26.5206 37.7388 21.968 50.8192 16.0358 50.8192H15.0728C12.6737 50.8192 10.7657 48.0539 10.6333 45.5495C10.596 44.6527 10.6333 44.1295 10.6333 43.2326C10.6333 42.3174 10.9162 41.6068 10.3877 41.102C9.63178 40.3914 8.57368 39.4394 7.95014 38.6724C6.36356 36.6729 5.3247 34.3181 7.11837 31.5711C7.74192 30.5995 8.8566 30.02 10.1603 29.759C10.8404 29.6095 14.146 29.329 14.4492 29.1795C14.1086 28.6747 11.6914 27.0121 11.0294 26.5257C10.1037 25.8347 8.8566 23.8535 7.60951 23.8535C6.09875 23.8535 4.00066 25.461 3.28319 26.3383C-0.608568 31.0848 0.297888 37.4191 4.13307 41.232C4.71813 41.8299 5.28509 42.2783 5.81471 42.9693C6.39977 43.7547 6.24926 44.7067 6.24926 46.0152C6.24926 48.4253 6.7404 50.0143 7.53369 51.6402C8.83962 54.2572 11.843 57.2846 15.6397 57.2846Z" fill="#F000FE"/>
<path fill-rule="evenodd" clip-rule="evenodd" d="M32.0947 25.0124C32.0947 25.9656 35.2113 27.2178 36.5342 27.2178C37.2902 27.2178 41.3517 14.1374 47.7942 14.1374H48.3046C50.062 14.1374 51.4969 15.6701 52.1771 16.8096C53.2352 18.6412 52.9138 20.9202 52.9138 23.574C52.9138 23.9293 57.3533 26.7693 57.3533 30.3947C57.3533 32.3563 56.2012 33.9822 54.8976 34.6548C53.6505 35.2907 51.119 35.7943 49.3242 35.8323C49.3808 36.3934 52.9138 38.5608 54.1416 39.7934C54.4064 40.074 55.3129 41.2134 55.6524 41.2134C56.4083 41.2134 57.9191 40.4281 58.4487 40.1291C60.8671 38.7091 62.775 35.6632 62.775 32.5426V31.6641C62.775 29.1794 61.6411 26.8429 60.6407 25.3298C60.0364 24.4145 59.4321 23.7971 58.6762 23.0313C57.411 21.7423 57.4676 22.3207 57.4676 20.0969C57.4676 16.4715 56.466 13.4256 54.8421 11.4445C53.3121 9.59443 50.6856 7.61328 47.3992 7.61328C43.1487 7.61328 39.3701 11.4813 37.6138 14.1535C36.5716 15.7448 32.0947 23.0888 32.0947 25.0124Z" fill="#00FFEA"/>
<path fill-rule="evenodd" clip-rule="evenodd" d="M24.349 32.1323C25.4637 32.1323 26.6157 29.1795 26.6157 27.7974C26.6157 27.4605 23.2525 25.8163 22.7432 25.5553C21.289 24.8263 20.1359 24.2468 18.8514 23.3131C17.0759 22.0046 13.6368 19.0714 13.6368 16.175V15.8197C13.6368 14.3434 14.8454 12.8486 15.7145 12.1943C18.6998 9.93377 22.4592 11.5217 23.1959 10.8306C24.8956 9.26113 26.8047 6.5142 29.2412 6.5142H29.9213C31.8666 6.5142 33.3027 7.74796 34.002 9.09325C34.569 10.1775 34.9843 13.1671 34.9843 14.8493C35.3431 14.5871 37.1752 11.9345 37.6098 11.3734C38.2899 10.4581 40.2171 9.16799 40.2171 7.89744C40.2171 6.77636 38.9893 4.85155 38.4415 4.16051C37.6675 3.2073 36.5143 2.32884 35.3057 1.80567C32.3023 0.478772 29.0341 0.890409 26.3894 2.2357C24.6897 3.11417 23.0273 4.40312 21.7417 5.8427C20.9292 6.75796 21.0808 6.36587 19.6821 6.40382C15.9601 6.47855 13.372 7.30068 11.1992 8.94493C9.23464 10.4397 7.53376 12.8129 7.32667 16.1014C6.96793 21.67 12.6726 26.2291 16.7918 28.6403C17.9076 29.2738 23.1212 32.1323 24.349 32.1323Z" fill="#90FE00"/>
</svg>
