<svg width="63" height="64" viewBox="0 0 63 64" fill="none" xmlns="http://www.w3.org/2000/svg">
<path fill-rule="evenodd" clip-rule="evenodd" d="M36.9324 36.3564C36.9324 37.1969 49.8547 41.0281 49.8547 47.9236C49.8547 51.2685 46.9453 53.0806 43.5265 53.0806L41.4296 53.0242C40.5797 52.9874 40.5412 52.9679 40.1259 53.4359C38.5574 55.248 36.6687 57.435 33.8916 57.5097C31.9271 57.566 30.3212 56.3507 29.6411 54.987C29.0176 53.7164 28.5638 51.0442 28.5638 49.1378C28.205 49.4 26.5607 51.9411 26.0888 52.539C25.6916 53.0438 23.2744 55.2492 23.2744 55.6228C23.2744 59.6783 27.9968 63.0231 32.0968 63.0231H32.7203C35.4408 63.0231 38.1229 61.5283 39.654 60.313C40.7494 59.4345 41.7136 58.1456 42.0531 57.8834C43.5265 56.706 48.8725 58.8182 53.1422 54.4454C54.5217 53.0438 56.3346 50.6338 56.3346 47.8673V47.4752C56.3346 43.2703 52.3489 39.2528 49.8547 37.4591C48.2863 36.338 41.0516 31.8525 38.9727 31.8525C38.1036 31.8537 36.9324 35.2733 36.9324 36.3564Z" fill="white"/>
<path fill-rule="evenodd" clip-rule="evenodd" d="M15.6417 56.3139H16.5481C21.6304 56.3139 25.2574 51.0259 27.3158 47.7558C28.5822 45.7195 30.7165 42.1125 31.3208 39.6461C31.5856 38.5434 31.4905 38.5434 30.7165 38.095C30.0929 37.7397 28.091 36.7681 27.2027 36.7681C26.5226 36.7681 21.9699 49.8485 16.0378 49.8485H15.0747C12.6756 49.8485 10.7677 47.0832 10.6352 44.5788C10.5979 43.682 10.6352 43.1588 10.6352 42.2619C10.6352 41.3467 10.9182 40.6361 10.3897 40.1313C9.63373 39.4207 8.57564 38.4687 7.9521 37.7017C6.36551 35.7022 5.32665 33.3474 7.12033 30.6004C7.74387 29.6288 8.85855 29.0493 10.1622 28.7883C10.8423 28.6388 14.1479 28.3583 14.4512 28.2088C14.1106 27.704 11.6933 26.0414 11.0313 25.555C10.1056 24.864 8.85855 22.8828 7.61147 22.8828C6.10071 22.8828 4.00262 24.4903 3.28515 25.3676C-0.606615 30.1141 0.299841 36.4484 4.13502 40.2612C4.72009 40.8592 5.28705 41.3076 5.81666 41.9986C6.40173 42.784 6.25122 43.736 6.25122 45.0445C6.25122 47.4545 6.74236 49.0436 7.53565 50.6695C8.84158 53.2865 11.845 56.3139 15.6417 56.3139Z" fill="white"/>
<path fill-rule="evenodd" clip-rule="evenodd" d="M32.0967 24.0417C32.0967 24.9949 35.2133 26.2471 36.5362 26.2471C37.2921 26.2471 41.3536 13.1667 47.7961 13.1667H48.3065C50.064 13.1667 51.4989 14.6994 52.179 15.8389C53.2371 17.6705 52.9157 19.9495 52.9157 22.6033C52.9157 22.9586 57.3552 25.7986 57.3552 29.424C57.3552 31.3856 56.2032 33.0115 54.8995 33.6841C53.6524 34.32 51.1209 34.8236 49.3261 34.8616C49.3827 35.4227 52.9157 37.5901 54.1436 38.8227C54.4084 39.1033 55.3148 40.2427 55.6543 40.2427C56.4103 40.2427 57.921 39.4574 58.4507 39.1584C60.869 37.7384 62.777 34.6925 62.777 31.5719V30.6934C62.777 28.2087 61.6431 25.8722 60.6427 24.3591C60.0384 23.4438 59.4341 22.8263 58.6781 22.0606C57.4129 20.7716 57.4695 21.35 57.4695 19.1262C57.4695 15.5008 56.468 12.4549 54.8441 10.4738C53.3141 8.62372 50.6875 6.64258 47.4012 6.64258C43.1507 6.64258 39.3721 10.5106 37.6158 13.1828C36.5735 14.7741 32.0967 22.1181 32.0967 24.0417Z" fill="white"/>
<path fill-rule="evenodd" clip-rule="evenodd" d="M24.351 31.1616C25.4657 31.1616 26.6177 28.2088 26.6177 26.8267C26.6177 26.4898 23.2544 24.8456 22.7452 24.5846C21.291 23.8556 20.1378 23.2761 18.8534 22.3424C17.0778 21.0339 13.6387 18.1007 13.6387 15.2043V14.849C13.6387 13.3726 14.8473 11.8779 15.7165 11.2236C18.7018 8.96307 22.4611 10.551 23.1978 9.85993C24.8976 8.29042 26.8067 5.5435 29.2431 5.5435H29.9232C31.8686 5.5435 33.3046 6.77726 34.004 8.12255C34.571 9.20683 34.9863 12.1964 34.9863 13.8786C35.345 13.6164 37.1772 10.9638 37.6117 10.4027C38.2918 9.48739 40.2191 8.19729 40.2191 6.92673C40.2191 5.80566 38.9912 3.88085 38.4435 3.18981C37.6694 2.2366 36.5163 1.35814 35.3077 0.834966C32.3043 -0.491931 29.036 -0.0802939 26.3914 1.265C24.6916 2.14347 23.0292 3.43242 21.7436 4.872C20.9311 5.78726 21.0828 5.39517 19.684 5.43311C15.962 5.50785 13.3739 6.32998 11.2011 7.97422C9.23659 9.469 7.53571 11.8422 7.32862 15.1307C6.96989 20.6993 12.6746 25.2584 16.7938 27.6696C17.9096 28.3031 23.1231 31.1616 24.351 31.1616Z" fill="white"/>
</svg>
