<svg width="22" height="13" viewBox="0 0 22 13" fill="none" xmlns="http://www.w3.org/2000/svg">
<path d="M20.5575 12.039C20.4454 12.039 20.3332 12.039 20.2211 12.039C19.0996 12.039 18.0902 12.039 16.9687 12.039C16.8566 12.039 16.7444 12.039 16.6323 11.9268C16.408 11.7025 16.1837 11.5904 15.9594 11.3661C15.3986 10.8053 14.8379 10.2446 14.3893 9.68383C14.165 9.45953 14.0528 9.34739 13.8285 9.23524C13.7164 9.12309 13.6042 9.12309 13.4921 9.12309C13.3799 9.12309 13.1556 9.23523 13.1556 9.34738C13.0435 9.45953 13.0435 9.57168 13.0435 9.79598C13.0435 10.0203 13.0435 10.3567 13.0435 10.581C13.0435 10.9175 13.0435 11.1418 12.9313 11.4782C12.9313 11.5904 12.8192 11.7025 12.8192 11.8147C12.707 12.039 12.4827 12.1511 12.2584 12.1511C11.3612 12.1511 10.3519 12.1511 9.4547 12.1511C9.2304 12.1511 9.11825 12.039 9.0061 12.039C7.99675 11.4782 7.2117 10.9175 6.53881 10.2446C5.64161 9.34738 4.96871 8.45019 4.18367 7.44084C3.17432 6.2072 2.27712 4.8614 1.60423 3.51561C1.26778 2.95486 1.04348 2.39411 0.819181 1.83337C0.707031 1.60907 0.707031 1.38477 0.707031 1.04832C0.707031 0.93617 0.819181 0.93617 0.819181 0.82402C0.93133 0.711871 0.93133 0.711871 1.15563 0.599721H1.26778C2.27712 0.599721 3.28647 0.599721 4.18367 0.599721C4.40797 0.599721 4.52012 0.711871 4.63227 0.82402C4.96871 1.04832 5.19301 1.38477 5.30516 1.72122C5.52946 2.05767 5.64161 2.39411 5.86591 2.73056C6.20236 3.40346 6.65096 4.18851 7.09955 4.74925C7.32385 5.0857 7.54815 5.42215 7.77245 5.64645C7.8846 5.7586 7.99675 5.87075 8.22105 5.87075C8.44535 5.87075 8.44535 5.7586 8.44535 5.64645V5.5343C8.44535 4.41281 8.44535 3.29131 8.44535 2.16981C8.44535 2.05767 8.44535 1.94552 8.44535 1.94552C8.44535 1.72122 8.3332 1.60907 8.1089 1.60907C7.99675 1.60907 7.8846 1.60907 7.8846 1.60907C7.6603 1.49692 7.54815 1.38477 7.436 1.16047C7.436 0.711871 7.54815 0.375422 7.99675 0.263273C8.22105 0.151123 8.3332 0.151123 8.5575 0.151123C9.4547 0.151123 10.3519 0.151123 11.1369 0.151123C11.3612 0.151123 11.4734 0.151123 11.6977 0.151123C11.922 0.151123 12.0341 0.151123 12.2584 0.263273C12.5949 0.375422 12.8192 0.599721 12.9313 1.04832C12.9313 1.16047 12.9313 1.27262 12.9313 1.38477C12.9313 2.05767 12.9313 2.73056 12.9313 3.40346C12.9313 4.07636 12.9313 4.8614 12.9313 5.5343C12.9313 5.64645 12.9313 5.64645 12.9313 5.7586C13.0435 5.9829 13.2678 6.09505 13.3799 5.87075C13.9407 5.42215 14.3893 4.8614 14.6136 4.30066C14.8379 3.73991 15.1743 3.17916 15.3986 2.50626C15.6229 2.05767 15.8472 1.60907 16.0715 1.16047C16.0715 1.04832 16.1837 0.93617 16.2958 0.82402C16.408 0.711871 16.408 0.711871 16.5201 0.711871C17.7538 0.711871 19.0996 0.711871 20.3332 0.711871C20.6696 0.711871 20.8939 0.82402 21.1182 1.04832C21.2304 1.16047 21.2304 1.27262 21.2304 1.38477C21.3425 1.83337 21.1182 2.28196 20.8939 2.73056C20.6696 3.17916 20.4454 3.51561 20.1089 3.85206C19.5482 4.52495 18.8753 5.31 18.4267 6.09505C18.3145 6.31935 18.2024 6.54365 18.0902 6.76795C17.9781 6.8801 17.9781 7.10439 18.0902 7.21654C18.3145 7.44084 18.5388 7.77729 18.7631 8.00159C19.3239 8.67449 19.8846 9.23524 20.4454 9.90813C20.6696 10.1324 20.7818 10.3567 21.0061 10.581C21.1182 10.6932 21.1182 10.6932 21.1182 10.8053C21.5668 11.1418 21.0061 12.039 20.5575 12.039Z" fill="#161A25"/>
</svg>
