<svg width="41" height="41" viewBox="0 0 41 41" fill="none" xmlns="http://www.w3.org/2000/svg">
<path fill-rule="evenodd" clip-rule="evenodd" d="M23.8826 23.3927C23.8826 23.9264 32.2194 26.3589 32.2194 30.737C32.2194 32.8607 30.3424 34.0113 28.1368 34.0113L26.784 33.9755C26.2357 33.9521 26.2109 33.9397 25.9429 34.2369C24.931 35.3874 23.7125 36.776 21.9209 36.8234C20.6535 36.8592 19.6175 36.0875 19.1787 35.2217C18.7765 34.415 18.4837 32.7184 18.4837 31.5079C18.2523 31.6744 17.1914 33.2878 16.887 33.6674C16.6307 33.9879 15.0713 35.3881 15.0713 35.6254C15.0713 38.2003 18.1179 40.324 20.763 40.324H21.1653C22.9204 40.324 24.6507 39.375 25.6385 38.6033C26.3452 38.0455 26.9672 37.2271 27.1863 37.0607C28.1368 36.3131 31.5857 37.6542 34.3403 34.8778C35.2303 33.9879 36.3999 32.4577 36.3999 30.7012V30.4523C36.3999 27.7825 33.8286 25.2317 32.2194 24.0928C31.2076 23.381 26.5401 20.5331 25.199 20.5331C24.6383 20.5338 23.8826 22.705 23.8826 23.3927Z" fill="#F000FE"/>
<path fill-rule="evenodd" clip-rule="evenodd" d="M10.1476 36.0648H10.7324C14.0112 36.0648 16.3511 32.7073 17.6791 30.6311C18.496 29.3382 19.873 27.048 20.2628 25.482C20.4337 24.7819 20.3724 24.7819 19.873 24.4972C19.4707 24.2716 18.1792 23.6547 17.6061 23.6547C17.1673 23.6547 14.2302 31.9598 10.4031 31.9598H9.78179C8.23401 31.9598 7.0031 30.204 6.91768 28.614C6.89358 28.0445 6.91768 27.7123 6.91768 27.1429C6.91768 26.5618 7.1002 26.1106 6.75925 25.7901C6.27156 25.3389 5.58893 24.7345 5.18665 24.2475C4.16308 22.978 3.49286 21.4828 4.65004 19.7387C5.05232 19.1218 5.77145 18.7539 6.6125 18.5882C7.05128 18.4933 9.18385 18.3151 9.37951 18.2202C9.15976 17.8997 7.6003 16.8441 7.17321 16.5353C6.576 16.0965 5.77145 14.8386 4.9669 14.8386C3.99224 14.8386 2.63867 15.8592 2.1758 16.4163C-0.334953 19.4299 0.249842 23.4518 2.72409 25.8726C3.10154 26.2522 3.46731 26.537 3.80899 26.9757C4.18644 27.4743 4.08934 28.0788 4.08934 28.9096C4.08934 30.4398 4.4062 31.4487 4.91798 32.481C5.7605 34.1426 7.69814 36.0648 10.1476 36.0648Z" fill="#F000FE"/>
<path fill-rule="evenodd" clip-rule="evenodd" d="M20.7637 15.5742C20.7637 16.1794 22.7743 16.9745 23.6278 16.9745C24.1155 16.9745 26.7357 8.66941 30.8921 8.66941H31.2214C32.3552 8.66941 33.2809 9.64256 33.7197 10.366C34.4023 11.529 34.195 12.976 34.195 14.6609C34.195 14.8865 37.0591 16.6897 37.0591 18.9916C37.0591 20.2371 36.3159 21.2694 35.4748 21.6964C34.6703 22.1001 33.0371 22.4199 31.8792 22.444C31.9157 22.8003 34.195 24.1764 34.9871 24.959C35.158 25.1372 35.7427 25.8606 35.9618 25.8606C36.4495 25.8606 37.4241 25.362 37.7658 25.1722C39.326 24.2706 40.5569 22.3367 40.5569 20.3553V19.7976C40.5569 18.2199 39.8254 16.7365 39.18 15.7757C38.7901 15.1946 38.4002 14.8026 37.9125 14.3163C37.0963 13.498 37.1328 13.8652 37.1328 12.4533C37.1328 10.1514 36.4867 8.21751 35.439 6.95963C34.452 5.78498 32.7574 4.5271 30.6373 4.5271C27.8951 4.5271 25.4574 6.98299 24.3243 8.67963C23.6519 9.69002 20.7637 14.3528 20.7637 15.5742Z" fill="#F000FE"/>
<path fill-rule="evenodd" clip-rule="evenodd" d="M15.7662 20.0946C16.4853 20.0946 17.2286 18.2198 17.2286 17.3423C17.2286 17.1284 15.0588 16.0844 14.7302 15.9187C13.7921 15.4558 13.0481 15.0879 12.2195 14.4951C11.074 13.6643 8.85526 11.8019 8.85526 9.96292V9.73734C8.85526 8.79995 9.63499 7.85089 10.1957 7.43549C12.1216 6.00021 14.547 7.00841 15.0223 6.56965C16.1188 5.57313 17.3505 3.82904 18.9224 3.82904H19.3611C20.6161 3.82904 21.5426 4.61238 21.9938 5.46654C22.3596 6.15498 22.6275 8.05311 22.6275 9.12117C22.859 8.95472 24.041 7.27049 24.3213 6.91423C24.7601 6.33311 26.0034 5.51399 26.0034 4.70729C26.0034 3.99549 25.2113 2.77338 24.8579 2.33462C24.3585 1.72941 23.6146 1.17165 22.8349 0.839478C20.8972 -0.003001 18.7887 0.258357 17.0825 1.11252C15.986 1.67028 14.9135 2.48866 14.0841 3.40269C13.5599 3.98381 13.6577 3.73486 12.7554 3.75895C10.3541 3.8064 8.68442 4.32839 7.28267 5.37236C6.01524 6.32143 4.91793 7.82825 4.78433 9.9162C4.55289 13.4518 8.23323 16.3465 10.8907 17.8774C11.6106 18.2797 14.9741 20.0946 15.7662 20.0946Z" fill="#F000FE"/>
</svg>
