<svg width="106" height="30" viewBox="0 0 106 30" fill="none" xmlns="http://www.w3.org/2000/svg">
<path d="M4.79038 16.8441L7.93645 13.5516L11.3283 10.143C11.5434 9.92314 11.7523 9.75821 11.9428 9.63604C12.1332 9.51386 12.4159 9.45278 12.803 9.45278H16.072C16.4529 9.45278 16.6803 9.55052 16.7479 9.73988C16.8155 9.92925 16.7417 10.1492 16.5267 10.3874L9.98262 17.003L17.3378 28.4565C17.473 28.7009 17.4975 28.9147 17.3992 29.1101C17.3071 29.2995 17.1043 29.3972 16.8093 29.3972H13.6633C13.227 29.3972 12.9136 29.3301 12.7231 29.1896C12.5327 29.0552 12.3667 28.8658 12.2316 28.6215L7.00246 20.2955L4.66749 22.6473V28.6153C4.66749 28.8291 4.61218 29.0185 4.50158 29.1651C4.39712 29.3178 4.1882 29.3911 3.88711 29.3911H0.992977C0.476826 29.3911 0.21875 29.1346 0.21875 28.6215V1.52997C0.21875 0.986306 0.476826 0.717529 0.992977 0.717529H3.89326C4.19435 0.717529 4.39712 0.790832 4.50772 0.943546C4.61833 1.09015 4.67363 1.29173 4.67363 1.53608V16.8075L4.79038 16.8441ZM24.8097 24.3516C24.8097 24.9746 24.951 25.3595 25.2398 25.5122C25.5286 25.6649 26.0202 25.7382 26.733 25.7382C27.0341 25.7626 27.2307 25.8054 27.329 25.8604C27.4273 25.9154 27.501 26.0498 27.5502 26.2697L27.7161 28.3405C27.7468 28.6642 27.5625 28.9208 27.1877 29.1101C26.8067 29.2995 26.3581 29.4278 25.842 29.495C25.3258 29.5683 24.8896 29.5988 24.5332 29.5988C22.9847 29.5988 21.8971 29.2506 21.2826 28.5604C20.6682 27.8701 20.3671 26.8316 20.3671 25.4572V1.52997C20.3671 1.01685 20.6252 0.760289 21.1413 0.760289H24.0416C24.5578 0.760289 24.8158 1.01685 24.8158 1.52997V24.3516H24.8097ZM34.8992 20.6559C34.9299 21.6821 35.0467 22.5373 35.2433 23.2154C35.4522 23.8934 35.7533 24.4249 36.165 24.8158C36.5706 25.2068 37.0806 25.4878 37.6766 25.6466C38.2788 25.8115 38.9977 25.8909 39.8457 25.8909C40.583 25.8909 41.4494 25.836 42.4572 25.726C43.4649 25.616 44.362 25.5244 45.1485 25.445C45.5295 25.39 45.7999 25.3961 45.9473 25.4633C46.0948 25.5305 46.1993 25.7565 46.2546 26.1353L46.5003 27.473C46.5556 27.7724 46.5495 28.0167 46.4819 28.2061C46.4143 28.3954 46.187 28.5726 45.806 28.7375C45.3943 28.8963 44.9212 29.0429 44.3743 29.1651C43.8336 29.2873 43.2621 29.3911 42.6599 29.4705C42.0578 29.55 41.4617 29.6172 40.8595 29.6721C40.2635 29.721 39.7166 29.7515 39.2251 29.7515C37.2649 29.7515 35.698 29.4644 34.5244 28.8963C33.3569 28.3282 32.4536 27.5708 31.833 26.624C31.2063 25.671 30.7884 24.5837 30.5857 23.3559C30.3829 22.1219 30.2784 20.8453 30.2784 19.5197C30.2784 18.5484 30.3645 17.4489 30.5242 16.2333C30.6901 15.0116 31.065 13.8754 31.6487 12.8186C32.2324 11.7618 33.105 10.8761 34.2602 10.1553C35.4154 9.44056 36.9884 9.08016 38.9793 9.08016C40.8042 9.08016 42.2851 9.34893 43.4157 9.8926C44.5463 10.4363 45.425 11.1326 46.0456 11.9878C46.6724 12.843 47.1025 13.8143 47.336 14.9138C47.5695 16.0134 47.6986 17.1007 47.7231 18.1819C47.7477 18.9149 47.6248 19.5075 47.3606 19.9717C47.0841 20.4299 46.5434 20.662 45.7261 20.662H34.8992V20.6559ZM38.9854 12.7392C38.2235 12.7392 37.5967 12.8491 37.1052 13.0629C36.6136 13.2828 36.2142 13.6005 35.9008 14.0159C35.5874 14.4374 35.3662 14.9505 35.2249 15.5613C35.0897 16.1722 34.9914 16.8564 34.9422 17.6138H43.0286C43.0286 16.9969 42.9733 16.386 42.8627 15.8057C42.7521 15.2254 42.5555 14.7061 42.2728 14.2419C41.9902 13.7838 41.5785 13.4172 41.05 13.1485C40.5216 12.8736 39.8272 12.7392 38.9854 12.7392ZM59.5762 24.3943C59.5762 24.3149 59.6561 24.0217 59.822 23.5208C59.9817 23.0199 60.1599 22.4701 60.3504 21.8776C60.5716 21.1751 60.8297 20.4054 61.1308 19.5625L64.3997 10.143C64.4796 9.92314 64.5841 9.76432 64.707 9.65436C64.8237 9.54441 65.0388 9.49554 65.3399 9.49554H68.4429C68.9898 9.49554 69.1557 9.7521 68.9406 10.2652L61.991 28.542C61.8866 28.8414 61.7514 29.0552 61.5855 29.1896C61.4196 29.3301 61.1738 29.3972 60.8481 29.3972H58.1015C57.7205 29.3972 57.4624 29.3362 57.3272 29.214C57.1921 29.0918 57.0692 28.878 56.9586 28.5848L50.0151 10.3019C49.9352 10.082 49.9229 9.8926 49.9782 9.73377C50.0335 9.56884 50.1933 9.48943 50.4698 9.48943H53.7019C54.003 9.48943 54.2119 9.53219 54.3348 9.62993C54.4577 9.72766 54.5744 9.92314 54.6789 10.2163L57.9478 19.7213C58.1936 20.5093 58.4271 21.2362 58.6422 21.9143C58.8327 22.4823 59.0047 23.0199 59.1522 23.5208C59.3058 24.0217 59.4103 24.3149 59.4594 24.3943H59.5762ZM76.0377 20.6559C76.0685 21.6821 76.1791 22.5373 76.388 23.2154C76.5908 23.8934 76.898 24.4249 77.3097 24.8158C77.7152 25.2068 78.2252 25.4878 78.8213 25.6466C79.4234 25.8115 80.1424 25.8909 80.9842 25.8909C81.7215 25.8909 82.5941 25.836 83.5957 25.726C84.6034 25.616 85.5005 25.5244 86.2932 25.445C86.6741 25.39 86.9384 25.3961 87.092 25.4633C87.2395 25.5305 87.3378 25.7565 87.3992 26.1353L87.645 27.473C87.7003 27.7724 87.6942 28.0167 87.6266 28.2061C87.5528 28.3954 87.3316 28.5726 86.9506 28.7375C86.5451 28.8963 86.0658 29.0429 85.519 29.1651C84.9721 29.2873 84.4006 29.3911 83.8046 29.4705C83.2024 29.55 82.6064 29.6172 82.0103 29.6721C81.4082 29.721 80.8674 29.7515 80.3759 29.7515C78.4157 29.7515 76.8488 29.4644 75.6813 28.8963C74.5077 28.3282 73.6106 27.5708 72.9838 26.624C72.3571 25.671 71.9392 24.5837 71.7426 23.3559C71.5398 22.1219 71.4354 20.8453 71.4354 19.5197C71.4354 18.5484 71.5153 17.4489 71.6812 16.2333C71.8471 15.0116 72.2219 13.8754 72.8056 12.8186C73.3894 11.7618 74.2619 10.8761 75.4233 10.1553C76.5785 9.44056 78.1453 9.08016 80.1362 9.08016C81.9612 9.08016 83.4359 9.34893 84.5665 9.8926C85.6971 10.4363 86.5758 11.1326 87.2026 11.9878C87.8232 12.843 88.2595 13.8143 88.493 14.9138C88.7265 16.0134 88.8493 17.1007 88.8801 18.1819C88.9046 18.9149 88.7818 19.5075 88.5052 19.9717C88.2349 20.4299 87.6942 20.662 86.8708 20.662H76.0377V20.6559ZM80.1239 12.7392C79.362 12.7392 78.7352 12.8491 78.2437 13.0629C77.7521 13.2828 77.3527 13.6005 77.0393 14.0159C76.7259 14.4374 76.4986 14.9505 76.3634 15.5613C76.2282 16.1722 76.1299 16.8564 76.0746 17.6138H84.161C84.161 16.9969 84.1057 16.386 84.0012 15.8057C83.8906 15.2254 83.694 14.7061 83.4052 14.2419C83.1164 13.7838 82.7108 13.4172 82.1824 13.1485C81.654 12.8736 80.9658 12.7392 80.1239 12.7392ZM97.8144 28.6215C97.8144 29.1346 97.5563 29.3972 97.0402 29.3972H94.0969C93.5807 29.3972 93.3227 29.1407 93.3227 28.6215V10.3019C93.3227 9.75821 93.5807 9.48943 94.0969 9.48943H96.9972C97.5441 9.48943 97.8144 9.75821 97.8144 10.3019V12.0856L97.8943 12.165C98.1954 11.8901 98.5825 11.603 99.0802 11.2915C99.5718 10.9799 100.094 10.6989 100.653 10.4424C101.212 10.1858 101.778 9.94757 102.343 9.73377C102.914 9.51386 103.449 9.36726 103.941 9.28785C104.217 9.23287 104.432 9.24509 104.598 9.3245C104.764 9.40391 104.868 9.62382 104.924 9.97812L105.206 12.6964C105.237 12.9957 105.225 13.2157 105.17 13.35C105.114 13.4844 104.868 13.5944 104.432 13.6738C103.861 13.7838 103.265 13.9059 102.632 14.0586C102.011 14.2052 101.397 14.3702 100.795 14.5473C100.192 14.7245 99.6332 14.8955 99.1171 15.0543C98.6009 15.2193 98.1585 15.3781 97.8083 15.543V28.6215H97.8144Z" fill="white"/>
</svg>
