<svg width="36" height="35" viewBox="0 0 36 35" fill="none" xmlns="http://www.w3.org/2000/svg">
<path fill-rule="evenodd" clip-rule="evenodd" d="M2.9774 5.23847L5.86706 2.34181C7.02292 1.18314 8.9012 1.32797 9.91257 2.63147L13.3802 7.1213C14.1026 8.13513 14.1026 9.43863 13.3802 10.4525L12.6577 11.4663C11.7909 12.4801 11.9353 14.0733 12.8022 14.9423L20.7488 22.9081C21.7602 23.9219 23.205 23.9219 24.2164 23.0529L25.2277 22.3288C26.2391 21.6046 27.5395 21.6046 28.5509 22.3288L33.0298 25.8048C34.3302 26.8186 34.4746 28.7014 33.3188 29.7153L30.4291 32.6119C28.4064 34.4948 23.0605 34.4948 12.0798 23.6323C1.09912 12.625 1.24361 6.97647 2.9774 5.23847Z" stroke="#161A25" stroke-width="2.5"/>
</svg>
