<svg width="91" height="91" viewBox="0 0 91 91" fill="none" xmlns="http://www.w3.org/2000/svg">
<circle cx="45.4766" cy="45.004" r="45" fill="white"/>
<path fill-rule="evenodd" clip-rule="evenodd" d="M50.9304 49.3282C50.9304 50.1687 63.8528 53.9999 63.8528 60.8954C63.8528 64.2403 60.9433 66.0524 57.5246 66.0524L55.4276 65.996C54.5777 65.9592 54.5393 65.9397 54.1239 66.4077C52.5555 68.2198 50.6667 70.4068 47.8897 70.4815C45.9251 70.5378 44.3193 69.3225 43.6392 67.9588C43.0156 66.6882 42.5618 64.0161 42.5618 62.1096C42.2031 62.3718 40.5588 64.9129 40.0869 65.5108C39.6897 66.0156 37.2725 68.221 37.2725 68.5946C37.2725 72.6501 41.9949 75.9949 46.0948 75.9949H46.7184C49.4389 75.9949 52.1209 74.5001 53.652 73.2848C54.7475 72.4063 55.7117 71.1174 56.0512 70.8552C57.5246 69.6778 62.8705 71.79 67.1402 67.4172C68.5197 66.0156 70.3327 63.6056 70.3327 60.8391V60.447C70.3327 56.2421 66.347 52.2246 63.8528 50.4309C62.2843 49.3098 55.0496 44.8243 52.9708 44.8243C52.1017 44.8255 50.9304 48.2451 50.9304 49.3282Z" fill="#010BFF"/>
<path fill-rule="evenodd" clip-rule="evenodd" d="M29.6397 69.2857H30.5462C35.6285 69.2857 39.2554 63.9977 41.3139 60.7276C42.5802 58.6913 44.7145 55.0843 45.3188 52.6179C45.5836 51.5152 45.4886 51.5152 44.7145 51.0668C44.091 50.7115 42.0891 49.7399 41.2007 49.7399C40.5206 49.7399 35.968 62.8203 30.0358 62.8203H29.0728C26.6737 62.8203 24.7657 60.055 24.6333 57.5506C24.596 56.6538 24.6333 56.1306 24.6333 55.2337C24.6333 54.3185 24.9162 53.6079 24.3877 53.1031C23.6318 52.3925 22.5737 51.4405 21.9501 50.6735C20.3636 48.674 19.3247 46.3192 21.1184 43.5722C21.7419 42.6006 22.8566 42.0211 24.1603 41.7601C24.8404 41.6106 28.146 41.3301 28.4492 41.1806C28.1086 40.6758 25.6914 39.0132 25.0294 38.5268C24.1037 37.8358 22.8566 35.8546 21.6095 35.8546C20.0988 35.8546 18.0007 37.4621 17.2832 38.3394C13.3914 43.0859 14.2979 49.4202 18.1331 53.2331C18.7181 53.831 19.2851 54.2794 19.8147 54.9704C20.3998 55.7558 20.2493 56.7078 20.2493 58.0163C20.2493 60.4263 20.7404 62.0154 21.5337 63.6413C22.8396 66.2583 25.843 69.2857 29.6397 69.2857Z" fill="#F000FE"/>
<path fill-rule="evenodd" clip-rule="evenodd" d="M46.0947 37.0135C46.0947 37.9667 49.2113 39.2189 50.5342 39.2189C51.2902 39.2189 55.3517 26.1385 61.7942 26.1385H62.3046C64.062 26.1385 65.4969 27.6712 66.1771 28.8107C67.2352 30.6423 66.9138 32.9213 66.9138 35.5751C66.9138 35.9304 71.3533 38.7704 71.3533 42.3958C71.3533 44.3574 70.2012 45.9833 68.8976 46.6559C67.6505 47.2918 65.119 47.7954 63.3242 47.8334C63.3808 48.3945 66.9138 50.5619 68.1416 51.7945C68.4064 52.0751 69.3129 53.2145 69.6524 53.2145C70.4083 53.2145 71.9191 52.4292 72.4487 52.1302C74.8671 50.7102 76.775 47.6643 76.775 44.5437V43.6652C76.775 41.1805 75.6411 38.844 74.6407 37.3309C74.0364 36.4156 73.4321 35.7981 72.6762 35.0324C71.411 33.7434 71.4676 34.3218 71.4676 32.098C71.4676 28.4726 70.466 25.4267 68.8421 23.4456C67.3121 21.5955 64.6856 19.6144 61.3992 19.6144C57.1487 19.6144 53.3701 23.4824 51.6138 26.1546C50.5716 27.7459 46.0947 35.0899 46.0947 37.0135Z" fill="#00FFEA"/>
<path fill-rule="evenodd" clip-rule="evenodd" d="M38.349 44.1334C39.4637 44.1334 40.6157 41.1806 40.6157 39.7985C40.6157 39.4616 37.2525 37.8174 36.7432 37.5564C35.289 36.8274 34.1359 36.2479 32.8514 35.3142C31.0759 34.0057 27.6368 31.0725 27.6368 28.1761V27.8208C27.6368 26.3444 28.8454 24.8497 29.7145 24.1954C32.6998 21.9349 36.4592 23.5228 37.1959 22.8317C38.8956 21.2622 40.8047 18.5153 43.2412 18.5153H43.9213C45.8666 18.5153 47.3027 19.7491 48.002 21.0944C48.569 22.1786 48.9843 25.1682 48.9843 26.8504C49.3431 26.5882 51.1752 23.9356 51.6098 23.3745C52.2899 22.4592 54.2171 21.1691 54.2171 19.8985C54.2171 18.7775 52.9893 16.8527 52.4415 16.1616C51.6675 15.2084 50.5143 14.3299 49.3057 13.8068C46.3023 12.4799 43.0341 12.8915 40.3894 14.2368C38.6897 15.1153 37.0273 16.4042 35.7417 17.8438C34.9292 18.7591 35.0808 18.367 33.6821 18.4049C29.9601 18.4797 27.372 19.3018 25.1992 20.946C23.2346 22.4408 21.5338 24.814 21.3267 28.1025C20.9679 33.6711 26.6726 38.2302 30.7918 40.6414C31.9076 41.2749 37.1212 44.1334 38.349 44.1334Z" fill="#90FE00"/>
</svg>
